<?xml version="1.0" standalone="no"?>
<!DOCTYPE svg PUBLIC "-//W3C//DTD SVG 20010904//EN"
 "http://www.w3.org/TR/2001/REC-SVG-20010904/DTD/svg10.dtd">
<svg version="1.0" xmlns="http://www.w3.org/2000/svg"
 width="1000.000000pt" height="560.000000pt" viewBox="0 0 1000.000000 560.000000"
 preserveAspectRatio="xMidYMid meet">

<g transform="translate(0.000000,560.000000) scale(0.100000,-0.100000)"
fill="#000000" stroke="none">
<path d="M0 2800 l0 -2800 5000 0 5000 0 0 2800 0 2800 -1155 0 -1155 0 0 -40
c0 -25 5 -40 13 -40 8 0 9 -3 1 -8 -7 -4 -12 -58 -13 -147 -1 -77 -4 -142 -7
-144 -2 -2 -4 82 -4 187 l0 192 -270 0 -271 0 34 -29 c31 -28 117 -159 117
-179 0 -5 7 -15 15 -22 30 -25 20 -29 -123 -60 -28 -7 -55 -16 -58 -21 -9 -15
-43 9 -131 88 -79 72 -83 77 -83 118 0 55 -10 105 -21 105 -5 0 -9 -25 -9 -56
l0 -56 -67 56 -67 56 -853 -1 c-840 0 -853 0 -853 -19 0 -11 5 -20 11 -20 5 0
7 5 4 10 -3 6 -1 10 4 10 6 0 11 -8 11 -17 0 -12 3 -14 8 -6 8 13 197 -101
197 -119 0 -6 11 -17 25 -26 l25 -14 -25 21 c-30 24 -20 28 15 5 14 -9 23 -20
20 -24 -3 -5 0 -12 6 -16 8 -5 9 -3 4 6 -5 8 -3 11 6 8 8 -3 13 -10 12 -16 -2
-6 4 -9 12 -6 12 5 12 1 2 -25 -9 -25 -9 -36 1 -52 11 -17 11 -20 0 -13 -12 8
-116 73 -337 212 -57 36 -106 74 -109 84 -2 10 -13 18 -24 18 -11 0 -16 -4
-12 -11 5 -8 1 -8 -14 0 -11 6 -46 11 -78 11 -46 0 -54 -2 -45 -14 9 -10 6
-13 -16 -12 -16 1 -33 5 -40 9 -6 4 -15 3 -18 -3 -4 -6 -3 -10 2 -9 20 3 27
-2 14 -10 -10 -7 0 -8 30 -5 32 3 39 2 24 -5 -14 -7 -15 -10 -5 -10 13 -1 13
-3 1 -10 -9 -6 -22 -6 -33 0 -10 5 -18 7 -18 3 0 -3 -6 -1 -13 5 -8 6 -18 7
-22 3 -5 -4 -4 -1 0 7 6 11 4 13 -8 8 -13 -5 -17 0 -17 21 0 21 -2 24 -10 12
-6 -10 -10 -11 -10 -2 0 9 -147 12 -699 12 -658 0 -700 -1 -704 -17 -4 -17 -5
-17 -6 0 -1 15 -13 17 -111 17 -93 0 -144 -8 -170 -28 -3 -2 -8 -58 -11 -125
l-6 -122 1 138 c1 125 -6 172 -17 115 l-4 -23 -2 23 -1 22 -1445 0 -1445 0 0
-2800z m4830 2768 c-4 -39 0 -49 13 -43 6 4 5 1 -4 -7 -9 -7 -14 -18 -12 -25
2 -6 -1 -15 -8 -19 -8 -4 -9 -3 -5 4 4 7 2 12 -4 12 -6 0 -8 5 -5 10 4 6 1 18
-7 27 -8 10 -8 14 -1 10 17 -11 29 33 12 44 -11 7 -10 9 4 9 13 0 18 -7 17
-22z m32 -7 c8 11 9 10 4 -3 -3 -10 -1 -20 4 -23 6 -4 10 2 10 12 0 15 2 16
10 3 14 -22 12 -30 -7 -31 -14 0 -13 -2 5 -9 12 -5 22 -11 22 -14 0 -6 -23 -2
-37 7 -6 4 -15 3 -18 -3 -4 -6 -3 -9 2 -8 4 1 18 -3 31 -10 16 -9 22 -21 21
-45 0 -18 -3 -26 -6 -19 -2 6 -11 12 -19 12 -9 0 -12 5 -9 10 6 9 -8 14 -27
11 -15 -2 -8 42 8 61 16 16 16 18 0 24 -9 3 -15 16 -15 28 1 19 2 19 6 2 4
-15 7 -16 15 -5z m606 -6 c-3 -3 -9 2 -12 12 -6 14 -5 15 5 6 7 -7 10 -15 7
-18z m-663 5 c-3 -5 -12 -10 -18 -10 -7 0 -6 4 3 10 19 12 23 12 15 0z m-1589
-27 c-10 -10 -19 5 -10 18 6 11 8 11 12 0 2 -7 1 -15 -2 -18z m-2 -28 c-4 -8
-8 -15 -10 -15 -2 0 -4 7 -4 15 0 8 4 15 10 15 5 0 7 -7 4 -15z m4424 -66
c-23 -15 -32 -10 -15 9 10 10 18 32 19 48 1 22 2 20 5 -10 3 -25 0 -42 -9 -47z
m-2617 28 c-6 -6 -11 -19 -11 -30 0 -12 -4 -16 -12 -11 -10 6 -10 5 -1 -8 7
-8 10 -18 6 -21 -3 -4 0 -7 7 -7 7 0 11 -3 8 -6 -4 -3 -17 0 -30 7 -21 11 -22
11 -9 -4 7 -10 9 -17 3 -17 -14 0 -23 28 -11 36 6 3 9 15 6 25 -3 11 -1 19 4
19 4 0 6 7 3 15 -4 8 -1 15 6 15 9 0 9 4 -1 17 -12 14 -10 14 14 -2 20 -12 25
-21 18 -28z m-81 29 c0 -3 -4 -8 -10 -11 -5 -3 -10 -1 -10 4 0 6 5 11 10 11 6
0 10 -2 10 -4z m-1725 -26 c3 -5 1 -10 -4 -10 -6 0 -11 5 -11 10 0 6 2 10 4
10 3 0 8 -4 11 -10z m1861 -28 c1 -7 2 -21 3 -33 0 -11 5 -17 11 -14 6 4 7 -1
3 -11 -5 -12 -3 -15 6 -9 7 4 11 18 8 31 l-4 24 46 -27 c25 -14 85 -51 133
-80 79 -49 86 -56 76 -73 -9 -14 -16 -16 -25 -8 -10 8 -13 7 -14 -3 0 -10 -2
-11 -6 -1 -2 6 -9 10 -14 6 -5 -3 -9 -1 -9 4 0 4 -19 19 -42 32 -24 13 -45 26
-48 29 -12 14 -68 40 -74 34 -3 -3 -6 -1 -6 5 0 7 -3 11 -7 11 -21 -3 -33 3
-33 16 0 13 -4 14 -20 5 -16 -9 -19 -8 -13 6 4 11 3 15 -5 10 -6 -3 -13 -2
-16 3 -4 5 -2 12 4 16 5 3 10 11 10 16 0 6 -4 7 -10 4 -5 -3 -10 -2 -10 4 0
20 54 23 56 3z m-1106 -19 c0 -30 -9 -27 -15 6 -2 11 0 21 6 21 5 0 9 -12 9
-27z m1709 -100 c3 -51 3 -93 -1 -93 -5 0 -8 15 -9 33 0 32 -17 84 -18 59 -1
-7 -6 -10 -12 -7 -13 9 -10 105 4 123 18 23 30 -15 36 -115z m-2472 60 c-3
-10 -5 -2 -5 17 0 19 2 27 5 18 2 -10 2 -26 0 -35z m960 -65 c-2 -24 -4 -7 -4
37 0 44 2 63 4 43 2 -21 2 -57 0 -80z m4310 15 c-2 -16 -4 -5 -4 22 0 28 2 40
4 28 2 -13 2 -35 0 -50z m-2907 26 c0 -16 -4 -28 -9 -25 -8 5 -3 56 5 56 2 0
4 -14 4 -31z m1018 -11 c3 -17 -31 -34 -48 -23 -16 10 -12 33 8 38 25 7 37 2
40 -15z m-3104 -14 c4 -11 1 -14 -11 -12 -9 2 -18 9 -21 16 -6 18 25 15 32 -4z
m2623 -46 c-2 -13 -4 -3 -4 22 0 25 2 35 4 23 2 -13 2 -33 0 -45z m871 43 c-6
-10 -18 -17 -25 -14 -9 4 -11 0 -7 -11 3 -9 10 -16 15 -16 20 0 7 -18 -18 -24
l-26 -7 7 -232 c4 -127 8 -233 10 -234 1 -2 43 6 92 17 49 11 125 27 169 35
44 8 166 32 270 53 l190 38 6 -261 c4 -143 8 -565 9 -938 l3 -679 -31 -27
c-37 -34 -48 -55 -112 -216 -28 -70 -60 -145 -71 -166 -17 -34 -17 -40 -5 -45
12 -4 14 -24 13 -89 -2 -97 1 -103 106 -172 50 -32 67 -49 63 -61 -3 -9 -10
-37 -15 -62 -6 -25 -17 -65 -26 -89 -17 -50 -19 -71 -5 -71 6 0 10 10 10 22 0
12 3 19 6 16 3 -3 -2 -40 -10 -82 -9 -41 -16 -101 -16 -133 0 -34 -4 -53 -9
-45 -6 10 -10 10 -21 -3 -12 -14 -15 -14 -30 0 -15 14 -19 13 -40 -10 -22 -23
-24 -33 -21 -107 2 -75 23 -208 37 -229 3 -5 2 -9 -1 -9 -3 0 -11 13 -16 29
-7 20 -15 28 -25 24 -8 -3 -11 -10 -7 -16 9 -15 13 -77 7 -110 -3 -15 -14 -32
-25 -38 -17 -9 -19 -7 -14 14 6 20 2 26 -20 31 -17 4 -26 13 -24 24 3 31 -1
43 -11 37 -6 -4 -8 -10 -5 -15 3 -4 -9 -7 -25 -6 -33 2 -39 -13 -15 -37 8 -8
11 -17 8 -21 -4 -3 6 -6 21 -6 18 0 26 -4 23 -12 -2 -8 -18 -12 -37 -11 -23 1
-29 -1 -19 -8 17 -10 0 -44 -22 -44 -9 0 -14 -12 -15 -32 -1 -32 21 -48 51
-37 16 6 28 34 16 34 -21 0 -20 33 0 51 25 22 35 24 45 8 4 -7 9 -8 13 -1 9
15 33 16 69 2 38 -14 41 -27 9 -39 -13 -5 -29 -16 -36 -25 -18 -22 8 -32 49
-17 36 12 61 5 53 -15 -7 -19 12 -18 31 2 25 24 19 37 -13 31 -25 -5 -29 -3
-34 19 -3 19 -1 24 11 19 23 -8 54 5 48 21 -3 7 -1 16 5 20 6 4 9 -19 7 -62
l-3 -68 -35 -2 c-19 -1 -43 -2 -52 -3 -10 -1 -18 -8 -18 -17 0 -9 -9 -18 -20
-21 -21 -6 -28 -23 -9 -23 5 0 8 -4 4 -9 -3 -5 0 -13 7 -17 8 -5 7 -9 -5 -13
-15 -6 -14 -9 7 -33 23 -27 23 -27 41 -8 9 10 15 26 12 35 -4 8 -2 25 3 37 10
23 10 23 9 -2 -2 -45 1 -52 16 -46 17 6 20 -11 5 -34 -8 -12 -10 -12 -10 -1 0
11 -3 11 -15 1 -8 -7 -15 -19 -15 -27 0 -9 6 -13 15 -9 9 3 15 0 15 -9 0 -13
-36 -15 -239 -15 l-240 0 -16 57 c-18 61 -55 221 -55 238 0 6 5 3 10 -5 7 -10
8 54 4 190 -7 214 -14 277 -14 124 0 -52 -4 -84 -9 -76 -7 11 -10 10 -15 -3
-10 -27 -7 -37 10 -31 15 6 15 4 0 -19 -9 -14 -14 -35 -11 -50 14 -68 15 -80
6 -65 -4 8 -11 31 -15 50 -5 27 -14 39 -44 55 -32 17 -37 25 -40 60 -3 39 -3
40 13 17 9 -12 20 -20 25 -17 5 3 10 -5 12 -17 2 -12 9 -23 16 -26 10 -3 10 2
0 25 -7 15 -18 32 -25 36 -7 4 -13 13 -13 20 0 7 -12 20 -25 30 -24 17 -24 17
-40 -13 -9 -17 -20 -28 -26 -24 -6 4 -2 15 11 29 l21 23 -28 22 c-25 20 -25
22 -6 18 14 -4 24 0 27 9 5 11 12 8 31 -14 30 -34 32 -16 5 37 -22 43 -25 54
-12 46 5 -3 6 15 2 40 -7 45 -20 71 -20 40 0 -21 -47 -91 -84 -125 -40 -38
-31 -17 14 30 22 23 49 66 60 96 23 61 24 72 9 93 -9 13 -10 13 -8 0 3 -30 -1
-73 -7 -68 -3 3 -7 20 -9 38 -5 37 -15 53 -15 24 -1 -13 -7 -8 -20 18 -11 20
-30 44 -42 53 -24 16 -24 17 20 43 7 5 14 28 15 52 2 44 2 45 -35 51 -21 3
-46 13 -55 21 -36 31 -39 28 -33 -29 4 -38 12 -60 25 -69 21 -15 39 -19 31 -6
-2 4 4 8 14 9 32 3 -22 -46 -60 -54 -46 -9 -180 -136 -180 -170 0 -17 -4 -22
-12 -17 -8 5 -7 0 2 -11 13 -16 13 -18 0 -13 -26 8 -22 35 8 69 l29 32 -29 43
c-29 43 -36 78 -18 89 6 4 8 11 5 16 -4 5 -1 9 4 9 6 0 11 -8 11 -18 0 -10 6
-26 13 -36 11 -15 17 -17 35 -7 12 6 21 19 21 29 -1 16 -2 16 -6 0 -5 -21 -12
-22 -37 -3 -10 7 -15 19 -11 25 5 8 11 7 23 -2 13 -11 14 -11 8 1 -10 16 9 31
41 31 42 0 45 24 38 333 -9 453 -15 578 -29 566 -43 -36 -164 -102 -175 -95
-11 7 -21 -52 -21 -128 0 -52 -2 -57 -16 -45 -13 10 -17 10 -25 -2 -5 -8 -9
-9 -9 -4 0 6 -3 6 -8 -1 -6 -9 -80 -47 -92 -47 -3 -1 -11 -7 -19 -15 -8 -8
-26 -12 -43 -10 l-28 5 -2 -381 -2 -381 -7 285 c-3 157 -8 371 -10 475 l-3
190 -6 -140 c-3 -77 -7 -134 -8 -127 -1 6 -9 12 -17 12 -19 0 -67 -29 -78 -47
-4 -7 -12 -13 -17 -13 -6 0 -21 -10 -35 -22 -40 -35 -63 -33 -68 5 -2 17 -5
-199 -5 -481 -2 -483 -3 -515 -20 -537 -19 -24 -19 -23 -25 103 -4 70 -7 306
-7 524 0 313 -3 399 -13 410 -16 16 -37 170 -40 288 -2 58 3 101 14 134 15 42
18 46 22 25 2 -13 5 135 6 329 0 193 -3 352 -7 352 -4 0 -12 -4 -17 -9 -13
-12 -115 -42 -115 -34 0 4 7 15 17 25 11 12 12 18 4 18 -15 0 -10 35 4 36 6 0
17 4 25 7 49 21 70 26 70 17 0 -6 5 -10 10 -10 12 0 13 176 4 358 -6 94 -10
118 -19 108 -17 -17 -94 -50 -101 -43 -23 23 64 88 100 74 14 -5 16 4 16 61 0
37 3 124 7 195 5 113 8 127 24 127 12 0 19 9 22 28 2 15 5 -157 7 -383 2 -359
13 -706 18 -605 3 48 10 55 60 57 43 2 76 18 67 33 -7 11 50 49 63 41 6 -3 12
-36 14 -71 2 -36 2 313 0 775 -3 462 -2 838 1 835 3 -3 8 -172 11 -375 10
-705 21 -1330 23 -1270 2 33 5 74 8 91 5 31 45 84 63 84 5 0 22 11 38 25 16
14 37 25 47 25 9 0 17 4 17 10 0 5 6 7 13 5 14 -6 36 37 39 74 3 49 15 -125
18 -249 2 -106 15 -218 19 -170 2 25 171 192 171 169 0 -5 5 -9 11 -9 7 0 8
165 4 543 -3 298 -5 557 -5 575 0 28 -3 32 -27 32 -16 0 -44 10 -63 21 -32 20
-34 23 -16 33 10 6 30 23 44 39 14 15 30 27 36 27 7 0 44 -20 85 -45 66 -42
77 -45 119 -41 26 3 39 3 29 0 -9 -3 -15 -10 -11 -15 3 -5 -9 -8 -28 -7 -31 3
-33 2 -39 -41 l-6 -43 36 6 c117 21 154 26 158 22 3 -2 11 -211 18 -463 l14
-458 -5 360 c-2 198 -7 533 -11 744 -4 232 -3 382 3 379 5 -3 18 -2 29 3 36
14 47 11 33 -10z m-90 -43 l3 -36 -111 -26 c-128 -30 -130 -30 -130 -12 0 7
-7 19 -15 26 -30 25 -33 24 165 74 77 19 84 17 88 -26z m-3498 12 c0 -11 -2
-20 -3 -20 -2 0 -12 9 -22 20 -18 19 -17 20 3 20 15 0 22 -6 22 -20z m3222
-22 c-10 -9 -85 -28 -91 -23 -2 3 1 5 7 5 7 0 12 11 12 24 0 19 6 25 28 28 27
3 58 -20 44 -34z m-3405 10 c-3 -8 -6 -5 -6 6 -1 11 2 17 5 13 3 -3 4 -12 1
-19z m2372 -12 c-3 -3 -11 5 -18 17 -13 21 -12 21 5 5 10 -10 16 -20 13 -22z
m-2670 -138 l-1 -132 58 -22 59 -22 1 -113 1 -114 71 -29 72 -30 0 -52 c0 -50
-1 -51 -26 -46 -18 3 -25 1 -20 -6 11 -18 -61 -4 -146 30 -65 26 -79 35 -75
50 3 10 1 18 -4 18 -5 0 -9 -33 -9 -73 l0 -74 103 -31 c56 -18 117 -35 135
-38 l32 -6 0 -94 0 -94 -122 44 c-68 24 -131 47 -140 51 -17 7 -18 -5 -19
-161 -1 -170 0 -196 7 -203 2 -2 19 0 38 6 42 13 46 6 46 -71 0 -50 1 -52 28
-50 42 1 51 -20 52 -128 l0 -97 37 -10 c20 -6 40 -8 45 -5 10 6 2 -373 -9
-456 -6 -44 -6 -44 -23 46 -19 96 -30 360 -17 382 6 8 2 12 -11 12 -19 0 -20
-12 -26 -297 -4 -164 -9 -315 -12 -335 -6 -37 -7 -38 -47 -38 -24 0 -56 -8
-73 -19 -34 -21 -74 -93 -74 -134 0 -14 -5 -29 -11 -33 -8 -5 -10 6 -6 37 4
24 9 154 12 289 3 135 10 385 15 555 5 171 12 380 15 465 12 379 25 783 29
870 3 52 5 139 5 193 1 53 3 97 6 97 4 0 5 -59 4 -132z m-1553 0 c-10 -184
-18 -270 -25 -261 -3 4 -26 8 -51 8 -25 0 -57 3 -71 6 -14 4 -33 2 -42 -3 -15
-8 -17 0 -16 89 0 54 4 120 7 146 7 45 10 50 45 62 20 7 37 11 37 9 0 -2 16 2
35 10 38 16 37 16 60 16 8 0 15 9 15 20 0 11 3 20 6 20 4 0 4 -55 0 -122z
m4043 108 c8 -10 9 -16 1 -21 -5 -3 -10 -1 -10 4 0 6 -3 10 -7 10 -17 -3 -24
2 -18 11 9 14 20 12 34 -4z m454 -70 c-3 -5 -12 9 -19 30 -18 52 -17 56 5 14
11 -19 17 -39 14 -44z m745 30 c12 -4 22 -12 22 -18 0 -16 -89 -3 -108 16 -14
14 -13 16 9 25 17 6 29 5 39 -4 8 -7 25 -16 38 -19z m-1069 -6 c11 -24 11 -24
-3 -6 -9 11 -16 24 -16 30 0 12 5 7 19 -24z m811 -14 c0 -8 10 -22 21 -30 21
-14 20 -15 -17 -25 -84 -22 -170 -41 -191 -41 -16 0 -21 6 -20 20 1 14 6 19
17 15 8 -3 4 3 -9 14 l-25 19 60 12 c32 7 70 16 84 20 42 14 80 12 80 -4z
m2660 -28 c0 -66 29 -675 35 -748 3 -36 10 -184 15 -330 5 -146 14 -364 20
-485 20 -408 25 -545 19 -545 -3 0 -13 170 -23 378 -25 516 -33 650 -34 572
-2 -62 22 -623 33 -795 6 -99 14 -428 8 -362 -3 30 -9 47 -17 47 -14 0 -16
-86 -2 -127 5 -16 3 -23 -6 -23 -7 0 -61 -2 -120 -5 l-108 -4 0 24 c0 13 -9
241 -20 507 -11 266 -27 661 -35 878 -8 217 -20 531 -26 698 -7 166 -9 305 -6
308 5 5 198 44 260 53 4 1 7 -18 7 -41z m-3170 -74 c83 -53 149 -99 146 -101
-3 -3 -14 2 -26 10 -18 13 -25 13 -49 1 -35 -17 -71 -8 -145 40 -65 41 -77 45
-50 15 19 -22 19 -22 -2 -9 -17 10 -21 24 -23 68 -1 30 -4 59 -7 63 -10 17 6
8 156 -87z m1864 61 c3 -8 1 -15 -4 -15 -6 0 -10 7 -10 15 0 8 2 15 4 15 2 0
6 -7 10 -15z m449 -15 c3 -11 1 -20 -4 -20 -5 0 -9 9 -9 20 0 11 2 20 4 20 2
0 6 -9 9 -20z m-5193 -10 c8 -5 11 -10 5 -10 -5 0 -17 5 -25 10 -8 5 -10 10
-5 10 6 0 17 -5 25 -10z m5688 -51 c35 -719 84 -2091 80 -2234 l-3 -110 -38
-6 c-57 -9 -59 -22 -2 -14 45 6 51 4 52 -13 1 -16 -7 -21 -45 -26 -54 -7 -49
-13 -101 119 l-39 100 -11 455 c-7 250 -16 604 -21 785 -5 182 -12 431 -15
555 -3 124 -8 275 -11 335 -3 61 -2 105 3 98 6 -8 23 -8 68 2 33 7 65 12 70
11 6 -2 11 -27 13 -57z m-5441 -11 c-2 -13 -4 -3 -4 22 0 25 2 35 4 23 2 -13
2 -33 0 -45z m1821 47 c29 -9 80 -32 113 -51 34 -20 66 -37 72 -38 50 -7 93
-45 88 -78 0 -4 6 -5 14 -2 10 4 15 0 15 -12 0 -16 2 -16 9 -4 6 8 7 18 5 22
-3 4 -1 8 4 8 14 0 22 -38 8 -43 -8 -3 -7 -9 3 -21 22 -26 6 -30 -19 -4 -13
13 -20 17 -15 10 4 -8 -10 -5 -36 8 -59 30 -359 210 -359 216 0 9 48 3 98 -11z
m2681 -91 l1 -72 67 14 c36 8 69 12 72 8 3 -3 9 -112 13 -242 4 -130 14 -410
23 -622 8 -212 15 -447 15 -523 0 -86 4 -136 10 -132 13 8 -10 -56 -28 -77
-14 -16 -13 -18 1 -18 15 0 17 -12 17 -84 0 -141 0 -141 -88 -167 -41 -13 -70
-25 -64 -27 6 -2 27 -24 48 -50 l37 -47 -44 46 c-24 25 -49 48 -56 50 -8 3
-13 153 -17 579 -6 604 -15 1180 -21 1365 -2 67 0 102 5 90 5 -11 9 -52 9 -91z
m455 -6 c11 -163 26 -480 27 -593 0 -71 3 -103 9 -90 9 22 13 13 10 -24 -1
-14 2 -21 9 -17 7 4 11 -1 11 -13 0 -14 -5 -19 -15 -15 -16 7 -19 -6 -9 -43 4
-13 10 -21 14 -18 5 3 11 -4 15 -15 11 -34 22 -22 22 25 1 29 -3 43 -10 38 -7
-4 -8 0 -2 13 10 23 14 519 4 587 -4 33 -3 47 6 47 14 0 9 93 -6 122 -13 24
-12 24 19 36 36 14 184 43 190 38 2 -3 8 -166 13 -363 22 -942 39 -1578 45
-1677 l6 -109 -35 36 c-33 36 -168 107 -202 107 -13 0 -15 7 -9 38 4 20 11 40
16 43 5 3 10 27 11 54 1 35 -2 49 -13 53 -13 5 -13 3 0 -14 14 -18 14 -18 -2
-5 -13 9 -15 18 -8 31 5 9 7 34 5 54 -15 111 -15 106 6 106 10 0 19 5 19 10 0
6 -7 10 -15 10 -16 0 -17 11 -18 143 0 45 -3 66 -11 64 -6 -2 -10 -20 -9 -40
1 -21 -2 -37 -6 -37 -9 0 -8 -46 1 -55 4 -4 0 -18 -8 -30 -14 -21 -14 -27 1
-55 21 -41 12 -51 -11 -13 -39 62 -42 64 -80 42 -38 -21 -84 -22 -84 -1 0 7 5
10 12 6 8 -5 9 -2 5 10 -4 10 -7 22 -7 27 0 9 -39 -7 -50 -20 -3 -3 -15 -12
-27 -18 -20 -11 -22 -11 -16 5 3 9 10 23 16 30 17 22 -1 13 -40 -20 l-38 -32
28 31 28 30 -15 524 c-9 288 -19 616 -22 728 -7 214 -6 220 37 221 20 0 21
-20 44 -730 22 -673 25 -720 42 -720 12 0 13 17 8 103 -3 56 -10 257 -15 447
-12 401 -28 795 -35 861 l-5 47 46 7 c25 3 48 5 50 2 2 -2 13 -332 24 -732 18
-646 25 -770 43 -744 1 2 0 99 -4 214 -10 301 -18 633 -25 1000 -3 176 -7 326
-9 333 -3 6 -1 12 4 12 5 0 11 -42 15 -92z m-3221 41 c34 -18 112 -60 174 -95
62 -35 115 -64 118 -64 3 0 26 -13 51 -29 29 -18 42 -31 35 -36 -7 -4 -9 -16
-5 -27 5 -17 3 -20 -10 -15 -10 4 -16 1 -16 -9 0 -9 5 -12 11 -8 15 9 29 -16
20 -35 -5 -9 -12 -47 -16 -86 -7 -65 -8 -68 -22 -50 -15 19 -14 14 3 -29 5
-13 4 -17 -3 -13 -6 4 -13 -3 -16 -15 -4 -13 -1 -26 6 -30 9 -6 9 -8 0 -8 -6
0 -15 5 -18 10 -3 6 -11 10 -16 10 -6 0 -8 -4 -4 -9 3 -5 1 -12 -5 -16 -6 -4
-10 6 -11 22 -1 17 -3 21 -6 11 -2 -10 -8 -18 -13 -18 -5 0 -11 -8 -13 -17 -3
-10 -5 0 -6 22 -1 22 -6 47 -12 55 -8 11 -9 4 -5 -27 4 -29 2 -43 -5 -43 -6 0
-9 -7 -5 -15 11 -29 -4 -14 -18 18 -11 24 -15 27 -16 12 l-1 -20 -9 20 c-8 18
-9 18 -10 -5 -1 -22 -2 -23 -11 -7 -7 12 -7 22 0 30 5 7 9 53 7 106 -3 91 -2
95 23 119 22 20 20 20 -12 -4 -21 -15 -41 -32 -45 -38 -4 -7 -24 -22 -44 -35
-21 -12 -38 -29 -38 -36 0 -8 -7 -11 -20 -8 -13 4 -22 -1 -27 -13 -3 -11 -20
-30 -36 -44 -36 -31 -53 -70 -35 -82 21 -13 24 -10 22 25 -1 26 0 27 3 4 2
-15 8 -25 14 -22 5 4 6 -2 2 -11 -5 -14 -3 -16 11 -11 10 4 15 3 11 -3 -3 -6
-2 -10 4 -10 5 0 11 3 14 8 2 4 2 2 1 -5 -2 -6 3 -14 10 -16 10 -4 12 1 9 14
-3 10 -1 19 5 19 5 0 12 10 16 22 5 20 7 21 19 8 8 -8 18 -28 21 -45 7 -29 7
-29 -9 -10 -16 20 -16 20 -12 -3 3 -12 1 -20 -4 -16 -5 3 -9 15 -9 26 0 25
-13 16 -15 -11 -1 -14 33 -35 154 -95 193 -94 400 -205 384 -206 -7 0 -13 -6
-13 -13 0 -8 -118 46 -290 132 -159 80 -288 146 -287 148 6 6 142 -49 227 -91
52 -27 91 -44 85 -38 -5 5 -108 59 -228 120 l-219 110 1 163 c1 196 11 380 20
374 4 -2 13 0 21 6 25 15 48 10 113 -22z m417 -62 c0 -16 -4 -26 -10 -22 -5 3
-10 1 -10 -4 0 -6 -7 -11 -15 -11 -17 0 -20 25 -5 35 6 4 8 11 5 16 -4 5 -2 9
4 9 5 0 12 -6 14 -12 3 -8 6 -6 6 5 1 9 -4 17 -10 17 -5 0 -7 5 -3 11 10 16
24 -10 24 -44z m456 -27 c7 -14 13 -19 14 -12 0 6 5 12 10 12 7 0 7 -6 2 -17
-6 -12 -4 -27 4 -43 8 -15 14 -19 14 -9 0 8 -6 21 -12 29 -11 12 -10 12 5 1 9
-7 17 -20 17 -27 0 -8 5 -14 10 -14 6 0 10 5 10 12 0 6 6 3 14 -8 11 -14 17
-16 27 -7 8 8 18 9 35 1 23 -11 24 -15 24 -124 l0 -112 -82 55 c-61 41 -83 51
-89 41 -7 -10 -9 -9 -9 4 0 11 -24 33 -60 55 l-60 38 0 82 c0 82 6 97 30 68 7
-8 16 -13 20 -10 5 3 10 1 12 -5 1 -5 13 -7 26 -3 23 6 23 6 -10 35 l-33 29
33 -23 c19 -13 40 -34 48 -48z m-2936 -132 c-3 -92 -9 -170 -13 -174 -4 -4 -7
0 -7 8 0 9 -12 19 -27 23 -43 10 -103 53 -97 69 4 9 -9 19 -40 30 -25 9 -67
24 -93 33 -27 10 -51 16 -55 15 -5 -1 -7 24 -7 56 1 31 4 44 6 29 l4 -28 67 6
c37 4 94 18 127 32 33 13 67 25 74 27 8 1 17 8 19 14 2 7 12 12 23 12 10 0 19
5 19 12 0 6 1 9 3 7 2 -2 0 -79 -3 -171z m3075 152 c3 -5 2 -10 -4 -10 -5 0
-13 5 -16 10 -3 6 -2 10 4 10 5 0 13 -4 16 -10z m-3468 -97 c-2 -16 -4 -5 -4
22 0 28 2 40 4 28 2 -13 2 -35 0 -50z m4423 -3 c0 -5 -2 -10 -4 -10 -3 0 -8 5
-11 10 -3 6 -1 10 4 10 6 0 11 -4 11 -10z m-4433 -287 c-2 -32 -3 -6 -3 57 0
63 1 89 3 58 2 -32 2 -84 0 -115z m3175 137 c5 -31 -6 -41 -16 -15 -5 13 1 45
9 45 1 0 5 -13 7 -30z m-566 -93 c-3 -18 -5 -49 -5 -70 -1 -24 -5 -36 -12 -32
-6 4 -8 13 -5 21 3 8 1 14 -4 14 -6 0 -10 5 -10 11 0 5 5 7 11 4 7 -5 10 3 8
21 -1 16 -1 47 0 69 2 35 3 37 11 17 6 -13 8 -37 6 -55z m601 -449 c-1 -288
-6 -534 -10 -548 -5 -17 -5 -19 1 -6 5 11 10 15 13 10 2 -5 2 -628 -1 -1384
-3 -756 -7 -1332 -8 -1280 -2 52 -9 117 -16 143 -8 32 -10 68 -5 105 21 150 0
887 -22 772 -3 -19 -7 121 -8 313 -1 338 -1 347 -21 347 -23 0 -284 58 -418
93 -51 13 -95 20 -97 16 -3 -4 -8 -29 -11 -56 -8 -69 -25 -143 -33 -143 -11 0
-1 141 14 194 8 27 11 54 8 60 -4 5 1 7 11 3 14 -6 15 -4 5 14 -6 12 -9 30 -6
40 3 10 0 19 -6 19 -6 0 -3 6 6 13 9 6 21 26 27 42 10 28 9 29 -6 10 -11 -14
-15 -15 -14 -5 7 49 -1 82 -20 87 -11 3 -20 9 -20 14 0 5 7 6 15 3 8 -4 15 -2
15 3 0 15 -36 44 -44 36 -4 -5 -6 -1 -4 7 2 8 -4 15 -12 15 -8 0 -29 15 -47
33 -18 18 -37 31 -42 28 -5 -3 -11 1 -15 9 -3 8 -4 15 -2 15 19 0 80 -30 118
-57 37 -27 47 -31 51 -18 4 11 4 10 3 -2 -1 -10 4 -31 12 -48 24 -48 31 -105
22 -180 -5 -39 -12 -78 -15 -87 -5 -13 12 -20 103 -42 59 -14 114 -26 120 -26
8 0 12 23 12 70 0 43 4 70 11 70 7 0 9 -26 7 -75 -3 -67 -1 -75 17 -79 11 -3
65 -15 120 -27 55 -11 107 -25 115 -29 13 -7 15 22 12 242 l-3 250 26 24 c14
12 25 30 25 39 0 28 -30 75 -48 75 -14 0 -16 8 -14 50 l4 50 -34 1 -33 1 38
10 37 10 0 256 c0 142 3 422 7 625 5 301 9 367 20 367 7 0 16 7 19 15 21 53
24 -30 21 -507z m-639 467 c1 -14 -3 -25 -8 -25 -6 0 -13 0 -17 0 -4 0 -7 9
-6 20 1 29 2 30 16 30 7 0 14 -11 15 -25z m-2878 -26 c0 -19 1 -20 18 -3 16
17 17 17 20 -5 5 -33 -1 -35 -49 -11 -32 17 -39 24 -28 31 23 15 39 10 39 -12z
m428 2 c60 -25 239 -81 258 -81 11 0 14 -19 14 -90 0 -66 -3 -90 -12 -90 -7 1
-85 27 -173 58 l-160 58 -3 68 c-5 105 -1 109 76 77z m2439 -63 c-2 -12 -9
-24 -16 -26 -9 -3 -9 2 0 22 15 32 20 33 16 4z m-2838 -60 c0 -54 -3 -67 -9
-50 -5 12 -15 22 -22 22 -10 0 -10 2 1 9 7 5 14 27 14 50 0 22 4 41 9 41 4 0
8 -33 7 -72z m2787 34 c-17 -16 -18 -16 -5 5 7 12 15 20 18 17 3 -2 -3 -12
-13 -22z m61 -18 c-3 -3 -12 -4 -19 -1 -8 3 -5 6 6 6 11 1 17 -2 13 -5z m14
-37 c-8 -8 -14 -8 -22 0 -8 8 -7 13 2 18 8 5 10 4 5 -3 -4 -7 -2 -12 3 -12 6
0 11 8 12 18 0 11 2 13 6 4 3 -8 0 -19 -6 -25z m-2594 -99 c-2 -24 -4 -5 -4
42 0 47 2 66 4 43 2 -24 2 -62 0 -85z m1993 20 c0 -56 -3 -78 -10 -68 -8 12
-14 10 -40 -15 l-30 -29 0 70 c0 73 10 94 42 94 10 0 21 7 24 15 11 28 14 15
14 -67z m623 47 c-8 -22 -22 -18 -16 5 3 11 9 17 14 15 4 -3 6 -12 2 -20z
m-1806 -140 c-7 -67 -12 -75 -43 -75 -13 0 -24 -4 -24 -10 0 -5 5 -10 10 -10
6 0 10 -7 10 -15 0 -8 5 -15 10 -15 20 0 9 -19 -20 -34 -29 -14 -30 -14 -30 7
0 12 4 36 9 54 6 20 6 33 0 35 -6 2 -7 41 -3 100 l7 96 40 -40 c39 -38 40 -40
34 -93z m1298 -153 c-10 -11 -12 4 -6 78 l6 75 3 -74 c2 -40 0 -76 -3 -79z
m-1410 14 c-4 -36 -11 -63 -16 -60 -5 3 -9 14 -9 25 0 13 -4 18 -12 13 -10 -5
-10 -4 -1 6 9 10 10 17 2 27 -8 9 -8 13 0 13 6 0 11 5 11 10 0 12 23 40 28 35
2 -2 1 -33 -3 -69z m1244 62 c7 11 9 11 14 -2 4 -9 14 -16 23 -16 16 0 17 -17
11 -202 -4 -172 -3 -199 8 -178 13 25 13 25 20 -15 4 -22 13 -46 19 -54 6 -8
11 -45 11 -83 l0 -69 -30 1 c-62 4 -95 0 -95 -11 0 -7 15 -10 39 -7 35 3 38 1
30 -14 -5 -10 -6 -18 -2 -18 4 0 1 -5 -7 -10 -10 -6 -11 -10 -2 -10 7 0 12
-13 12 -32 0 -30 -1 -30 -19 -14 -18 16 -19 16 -23 -18 -3 -29 -1 -36 13 -36
14 0 16 -15 11 -147 -2 -82 -5 -148 -6 -149 0 -1 -22 -4 -47 -7 -34 -5 -51 -2
-65 9 -18 14 -18 15 3 5 19 -10 22 -8 27 17 3 15 8 146 12 292 4 199 9 268 19
275 7 6 22 27 33 47 18 31 19 38 7 55 -14 17 -14 17 -15 -2 l-1 -20 -9 20 c-5
12 -9 15 -9 5 -1 -9 -4 -11 -11 -4 -6 6 -8 80 -3 208 3 112 10 191 15 184 6
-11 10 -11 17 0z m-1549 -117 l0 -79 -137 -25 c-236 -43 -213 -43 -213 -7 0
21 4 29 12 24 15 -10 95 -6 133 6 16 5 51 12 77 15 29 4 56 15 73 31 14 13 32
21 38 18 7 -4 2 4 -11 18 -23 25 -23 25 -3 31 13 3 21 13 21 26 0 12 2 21 5
21 3 0 5 -36 5 -79z m2250 30 c0 -6 -4 -13 -10 -16 -5 -3 -10 1 -10 9 0 9 5
16 10 16 6 0 10 -4 10 -9z m-2127 -82 c-6 -33 -4 -32 -38 -19 -27 10 -50 54
-40 78 4 12 8 13 17 4 18 -18 48 -14 49 6 0 9 5 4 9 -12 5 -16 6 -42 3 -57z
m1588 67 c5 3 9 1 9 -5 0 -5 -4 -13 -10 -16 -5 -3 -10 -4 -10 -1 0 2 -2 10 -3
18 -2 7 -2 10 0 5 3 -4 9 -5 14 -1z m452 -216 c18 -7 35 -15 40 -18 4 -2 7 22
7 53 0 33 4 54 10 50 5 -3 11 21 13 57 2 41 3 28 4 -37 0 -59 -2 -88 -6 -70
-7 27 -8 26 -12 -18 -4 -50 6 -76 14 -35 4 21 4 20 6 -3 1 -23 7 -28 38 -34
50 -9 75 -23 67 -37 -4 -7 -2 -8 5 -4 6 4 19 2 27 -5 28 -23 25 -1 -5 34 -17
19 -31 46 -31 59 0 13 -6 30 -12 37 -9 10 -10 12 -1 7 9 -5 13 11 16 56 3 59
3 58 5 -19 1 -45 6 -92 12 -105 15 -36 82 -106 110 -113 20 -6 23 -5 13 6 -8
8 -9 17 -4 23 5 6 11 29 14 51 2 29 4 22 5 -25 2 -62 4 -66 35 -87 18 -13 36
-23 39 -23 3 0 36 -14 73 -30 59 -26 66 -32 54 -46 -10 -12 -10 -20 -1 -35 15
-23 10 -24 -28 -4 -23 12 -30 22 -29 43 1 25 3 23 15 -16 2 -7 9 -10 14 -7 8
5 7 11 -1 21 -6 8 -8 14 -3 14 5 0 3 4 -5 9 -16 10 -51 3 -51 -11 0 -5 4 -7 8
-4 5 3 9 -1 9 -8 0 -22 -19 -15 -386 146 -249 109 -321 145 -322 161 -2 18 2
61 6 65 7 8 45 -20 40 -28 -3 -6 0 -7 8 -4 7 2 42 -9 78 -26 l64 -30 5 112 5
113 3 -110 3 -111 32 -14z m-358 180 c3 -5 1 -10 -4 -10 -6 0 -11 5 -11 10 0
6 2 10 4 10 3 0 8 -4 11 -10z m702 -87 c-2 -21 -4 -6 -4 32 0 39 2 55 4 38 2
-18 2 -50 0 -70z m-3192 45 c4 4 4 -56 1 -133 -4 -77 -9 -207 -11 -290 -2 -82
-11 -294 -20 -470 -14 -277 -33 -716 -35 -781 0 -15 -10 -26 -32 -34 -18 -7
-47 -24 -64 -36 -17 -13 -34 -20 -38 -17 -3 4 -6 -1 -6 -11 0 -20 -59 -140
-66 -133 -3 2 0 103 6 223 11 231 14 244 62 244 15 0 18 9 20 53 l1 52 6 -60
c6 -60 6 -60 13 -20 14 78 19 220 8 235 -7 12 -10 7 -11 -20 -1 -20 -3 -26 -6
-14 -3 16 -10 20 -33 16 l-30 -4 0 68 c0 38 3 113 7 167 6 93 7 97 30 97 23 0
32 23 13 35 -5 3 -10 -1 -10 -9 0 -9 -4 -16 -10 -16 -16 0 -12 18 10 38 17 15
19 29 17 93 -1 58 -5 74 -17 74 -13 0 -15 19 -12 125 4 157 6 163 43 158 16
-3 31 0 34 6 2 6 3 2 0 -9 -5 -23 -8 -105 -5 -120 6 -23 20 101 30 250 13 213
16 228 42 222 14 -4 22 0 25 14 4 14 9 17 18 9 6 -5 15 -6 20 -2z m2522 6 c-3
-3 -12 -4 -19 -1 -8 3 -5 6 6 6 11 1 17 -2 13 -5z m26 -68 c23 -9 36 -20 32
-26 -5 -8 -13 -6 -26 6 -10 9 -19 14 -19 10 0 -7 -86 39 -105 56 -5 5 10 0 35
-11 25 -10 62 -26 83 -35z m-2258 -286 l-14 -145 5 205 c5 226 17 324 21 175
2 -49 -4 -155 -12 -235z m-418 273 c-3 -10 -5 -4 -5 12 0 17 2 24 5 18 2 -7 2
-21 0 -30z m1753 -3 c0 -28 -14 -48 -23 -33 -8 14 5 73 14 67 5 -3 9 -18 9
-34z m699 -22 c0 -27 -2 -29 -8 -13 -5 11 -6 26 -4 33 8 21 13 13 12 -20z
m-1659 -483 c-5 -165 -15 -428 -20 -585 -6 -157 -12 -290 -14 -296 -2 -5 -23
-16 -47 -24 -68 -22 -136 -98 -192 -214 -26 -54 -45 -101 -42 -106 3 -4 -2
-10 -10 -14 -8 -3 -15 -11 -15 -18 0 -9 3 -8 10 2 11 17 11 22 17 -120 9 -181
5 -222 -27 -325 -18 -53 -34 -95 -36 -92 -3 3 2 27 11 54 9 26 17 78 18 115 1
37 6 68 11 68 4 0 5 28 2 63 -4 34 -8 78 -9 97 -1 26 -8 38 -24 45 -19 8 -23
18 -23 53 0 30 -3 41 -12 36 -8 -5 -9 2 -5 27 l6 34 -30 -35 -31 -35 21 43
c18 34 19 42 7 42 -10 0 -13 6 -10 15 10 25 -4 17 -21 -12 l-16 -28 4 32 c4
36 -11 39 -31 8 -12 -19 -12 -19 -10 5 2 17 -2 25 -12 25 -8 0 -24 8 -34 18
-11 9 -25 17 -30 17 -20 0 19 20 39 20 11 0 53 -16 93 -35 40 -19 72 -30 72
-25 0 6 -5 10 -11 10 -7 0 -8 21 -4 64 9 83 -7 93 -24 15 -15 -73 -35 -74 -39
-2 -4 57 1 63 57 70 38 5 48 10 40 18 -8 7 -158 35 -199 36 -30 2 -31 3 -7 6
25 4 27 8 29 51 0 26 1 53 1 60 -1 6 5 12 12 12 9 0 13 28 14 107 1 59 4 109
7 112 2 2 4 -46 4 -107 0 -106 1 -111 23 -117 33 -11 75 -54 88 -92 8 -26 14
-31 24 -23 10 8 15 8 20 0 4 -6 13 -9 20 -6 7 2 17 0 22 -5 7 -7 15 -2 26 14
16 26 37 307 37 515 0 106 -15 202 -32 202 -4 0 -5 7 -2 15 5 12 -2 15 -32 14
-34 -1 -36 -2 -14 -9 14 -4 19 -8 13 -9 -7 -1 -13 -10 -13 -22 0 -11 -4 -18
-9 -14 -9 5 -18 -46 -25 -150 -5 -77 4 265 10 398 6 115 13 140 20 77 5 -39
11 -50 30 -50 9 0 14 -11 14 -32 1 -29 2 -31 11 -14 12 19 -5 66 -23 66 -4 0
-8 5 -8 10 0 6 6 10 14 10 16 0 76 65 76 82 0 6 8 20 17 30 15 17 15 20 3 28
-13 8 -13 13 -2 31 7 11 12 22 10 24 -2 1 -37 13 -78 27 -72 24 -89 39 -72 65
5 8 33 5 107 -13 55 -13 114 -24 130 -23 25 0 19 5 -35 25 -78 31 -88 39 -36
31 33 -5 46 -2 72 18 18 14 42 25 53 25 22 0 28 14 10 26 -6 4 1 13 18 23 l28
18 3 -101 c2 -56 -2 -236 -8 -401z m977 453 c-3 -7 -5 -2 -5 12 0 14 2 19 5
13 2 -7 2 -19 0 -25z m-1768 -3 c0 -10 -18 -9 -47 0 -7 3 -11 9 -8 14 8 12 56
-1 55 -14z m2436 -4 c3 -5 1 -12 -5 -16 -5 -3 -10 1 -10 9 0 18 6 21 15 7z
m1092 -28 c-3 -10 -5 -4 -5 12 0 17 2 24 5 18 2 -7 2 -21 0 -30z m-3580 -35
c-2 -13 -4 -5 -4 17 -1 22 1 32 4 23 2 -10 2 -28 0 -40z m1518 42 c-3 -5 -14
-10 -23 -9 -14 0 -13 2 3 9 27 11 27 11 20 0z m1688 -169 c115 -50 213 -91
218 -91 5 0 9 -22 9 -50 0 -49 6 -57 43 -51 4 0 7 -3 7 -9 0 -17 29 -11 47 10
26 30 33 25 33 -26 l0 -46 -32 7 c-18 4 -44 14 -58 22 -14 8 -18 12 -10 10 58
-17 56 -13 -10 19 -77 37 -174 80 -270 118 -52 21 -86 24 -75 6 2 -4 -29 6
-70 23 -57 24 -75 36 -76 52 -1 15 -2 16 -6 3 -4 -15 -12 -13 -71 11 -37 16
-81 36 -97 45 l-30 17 30 -5 c17 -2 39 -7 50 -10 11 -4 1 3 -22 14 -40 19 -57
40 -33 40 6 0 10 15 10 34 l0 35 103 -43 c56 -24 196 -85 310 -135z m-3156
132 c-3 -10 -5 -4 -5 12 0 17 2 24 5 18 2 -7 2 -21 0 -30z m-297 -8 c0 -15 -6
-25 -15 -25 -12 0 -13 4 -3 25 6 14 13 25 15 25 1 0 3 -11 3 -25z m-60 -15 c0
-5 -8 -10 -17 -10 -15 0 -16 2 -3 10 19 12 20 12 20 0z m-2 -85 c1 -38 -1 -45
-17 -45 -10 0 -21 6 -24 14 -4 9 -23 16 -49 18 -33 2 -44 7 -46 22 -4 20 2 20
92 0 24 -6 28 -4 23 9 -5 15 0 27 12 27 4 0 8 -20 9 -45z m2886 -268 c53 -9
86 -35 86 -68 0 -27 -2 -29 -27 -23 -16 4 -31 9 -35 11 -13 7 -9 53 5 53 6 0
4 5 -6 11 -10 6 -29 8 -43 5 l-24 -6 2 167 2 168 3 -156 3 -156 34 -6z m1026
287 c0 -8 -4 -12 -10 -9 -5 3 -10 13 -10 21 0 8 5 12 10 9 6 -3 10 -13 10 -21z
m-1654 -8 c107 -37 204 -77 204 -85 0 -7 -299 95 -309 105 -12 12 44 1 105
-20z m-2197 -33 c0 -21 -3 -33 -5 -26 -3 7 -12 9 -20 6 -20 -7 -17 14 4 26 15
9 15 12 2 21 -13 8 -13 10 3 10 13 0 17 -8 16 -37z m1493 -763 c-18 -569 -17
-593 14 -730 7 -33 7 -34 -10 -17 -10 9 -24 17 -32 17 -8 0 -14 6 -14 14 0 8
-14 26 -32 41 l-31 26 10 77 c6 42 9 78 8 80 -1 2 -12 -12 -24 -30 -15 -22
-20 -26 -16 -11 3 12 3 34 -1 49 l-7 27 -18 -24 c-21 -27 -24 -22 -9 15 12 33
-4 43 -24 14 -16 -22 -16 -22 -12 12 l4 35 -20 -25 -21 -25 5 33 c4 27 1 32
-16 33 -15 1 -16 3 -5 6 9 2 40 -5 70 -16 29 -11 53 -20 54 -18 0 1 -2 20 -6
42 -3 22 -7 34 -8 28 0 -7 -8 -13 -16 -13 -17 0 -20 16 -4 25 5 4 8 21 5 38
-4 22 -3 26 2 13 8 -18 10 -16 23 15 13 33 14 32 17 -56 1 -49 5 -97 9 -105
10 -25 22 57 22 159 l1 94 -72 -6 c-45 -4 -79 -2 -88 4 -11 8 -7 9 19 5 30 -5
32 -4 20 11 -13 15 -12 15 8 5 12 -7 42 -12 66 -12 l45 0 6 323 c9 461 16 608
28 577 l10 -25 12 26 c6 14 18 34 26 44 14 16 15 7 17 -96 2 -63 -5 -368 -15
-679z m-1500 539 l-4 -127 -37 -5 c-20 -4 -83 -9 -140 -13 l-104 -7 7 44 c4
24 14 48 23 53 15 8 15 10 -1 22 -12 8 -16 23 -14 46 3 29 6 33 31 30 15 -1
27 2 27 8 0 5 -11 10 -25 10 -29 0 -33 15 -7 25 14 6 79 19 205 42 26 5 39 23
16 23 -8 0 -7 6 2 16 12 15 14 14 19 -12 4 -16 4 -86 2 -155z m-52 161 c0 -5
-2 -10 -4 -10 -3 0 -8 5 -11 10 -3 6 -1 10 4 10 6 0 11 -4 11 -10z m2100 1 c0
-5 -7 -14 -15 -21 -13 -10 -15 -9 -15 9 0 12 6 21 15 21 8 0 15 -4 15 -9z m40
-17 c0 -22 -16 -17 -17 6 -1 11 2 18 8 15 5 -4 9 -13 9 -21z m177 -61 c82 -28
143 -53 143 -60 0 -18 -11 -16 -67 8 -26 11 -89 34 -140 50 -51 16 -95 34 -98
39 -11 17 15 11 162 -37z m1102 -10 c-1 -27 6 -66 16 -87 19 -45 14 -88 -17
-149 -11 -22 -17 -48 -15 -59 5 -16 -172 140 -227 201 -13 14 -23 18 -30 12
-8 -7 -12 -4 -12 9 0 10 8 21 17 23 10 3 16 -1 15 -12 0 -8 4 -16 11 -16 6 0
15 -3 19 -7 11 -11 26 -10 19 1 -3 5 4 16 16 24 18 13 23 13 43 -7 12 -11 21
-23 19 -25 -2 -2 2 -10 9 -18 9 -11 16 -9 42 14 27 25 28 25 11 3 -11 -13 -26
-31 -33 -38 -7 -8 -10 -23 -6 -34 5 -17 3 -18 -14 -9 -11 6 -33 27 -50 48 -17
21 -31 33 -32 27 0 -6 34 -44 76 -84 l77 -73 19 43 20 42 -22 59 c-13 33 -27
62 -32 65 -6 4 -5 10 3 15 11 7 10 9 -4 9 -11 0 -15 4 -11 12 4 7 3 8 -5 4 -6
-4 -9 -11 -6 -16 3 -5 2 -11 -3 -14 -4 -2 -9 5 -9 16 -1 12 -8 25 -15 30 -8 6
-3 7 16 3 17 -3 42 -15 58 -26 l28 -20 0 40 c0 23 2 41 5 41 4 0 5 -21 4 -47z
m91 -80 l-5 -108 -3 94 c-2 83 1 121 10 121 2 0 1 -48 -2 -107z m-3940 -160
c-12 -223 -20 -296 -20 -177 0 83 22 415 28 410 2 -3 -1 -107 -8 -233z m7001
210 c-12 -20 -14 -14 -5 12 4 9 9 14 11 11 3 -2 0 -13 -6 -23z m-2951 -3 c0
-4 11 -11 25 -14 23 -6 25 -11 25 -66 l0 -60 -42 0 c-24 0 -54 -3 -68 -6 -21
-5 -22 -4 -7 6 13 8 17 25 17 65 0 32 4 55 11 55 5 0 7 5 4 10 -9 15 4 30 20
23 8 -3 15 -9 15 -13z m95 -28 c-3 -3 -11 0 -18 7 -9 10 -8 11 6 5 10 -3 15
-9 12 -12z m-1993 -94 c-2 -57 -8 -107 -14 -113 -7 -7 -9 2 -4 30 3 22 6 73 6
113 0 39 3 72 8 72 4 0 5 -46 4 -102z m59 27 c5 4 9 15 9 26 0 20 15 26 25 9
3 -6 0 -16 -7 -24 -30 -32 -46 -55 -56 -82 -10 -28 -10 -27 -11 18 -1 26 4 50
9 53 6 4 10 12 9 18 -1 7 0 19 1 27 2 8 5 0 7 -18 2 -18 9 -30 14 -27z m1309
45 c-8 -5 -19 -10 -25 -10 -5 0 -3 5 5 10 8 5 20 10 25 10 6 0 3 -5 -5 -10z
m3280 -10 c0 -11 -12 -26 -29 -34 -28 -15 -29 -15 -24 5 4 13 8 16 13 10 4 -7
11 -2 18 14 14 30 22 32 22 5z m-2813 -37 c-3 -10 -5 -4 -5 12 0 17 2 24 5 18
2 -7 2 -21 0 -30z m-471 16 c3 -6 -1 -18 -10 -27 -15 -15 -16 -14 -16 11 0 27
13 36 26 16z m-46 -9 c-8 -5 -26 -9 -40 -9 l-25 1 25 8 c14 4 32 8 40 9 13 1
13 0 0 -9z m-3313 -32 c-3 -8 -6 -5 -6 6 -1 11 2 17 5 13 3 -3 4 -12 1 -19z
m3072 -12 c-3 -3 -11 5 -18 17 -13 21 -12 21 5 5 10 -10 16 -20 13 -22z m344
-28 c-1 -18 1 -27 4 -20 6 14 23 16 23 2 0 -5 -11 -17 -25 -26 -20 -13 -28
-14 -39 -5 -12 10 -11 18 7 51 23 45 30 44 30 -2z m-1309 -10 c-4 -6 -6 -33
-5 -59 2 -40 -1 -47 -20 -52 -21 -6 -21 -4 -16 56 4 39 3 53 -3 37 l-8 -25 -1
28 c-1 24 3 27 30 27 21 0 28 -4 23 -12z m4449 -5 c-7 -2 -19 -2 -25 0 -7 3
-2 5 12 5 14 0 19 -2 13 -5z m301 -42 l7 -44 -63 7 c-94 9 -288 47 -288 56 0
9 100 23 108 15 3 -3 -8 -5 -24 -6 -40 -1 125 -47 199 -55 39 -5 57 -3 57 5 0
6 -4 11 -8 11 -5 0 -7 14 -4 30 6 38 8 36 16 -19z m-4256 10 l32 -1 0 -69 0
-68 -112 -15 c-62 -8 -114 -14 -116 -13 -1 1 1 42 4 91 l7 89 76 -7 c42 -3 91
-7 109 -7z m632 -34 c0 -5 -10 -2 -22 9 -13 10 -25 20 -27 21 -1 1 0 7 5 14 5
9 12 6 26 -10 10 -13 18 -28 18 -34z m3443 46 c-7 -2 -21 -2 -30 0 -10 3 -4 5
12 5 17 0 24 -2 18 -5z m-6126 -40 c-3 -10 -5 -4 -5 12 0 17 2 24 5 18 2 -7 2
-21 0 -30z m1502 -83 c-5 -9 -8 8 -7 45 l1 60 7 -45 c4 -25 4 -52 -1 -60z
m1891 45 c0 -27 -4 -35 -17 -35 -10 0 -35 -3 -56 -7 l-38 -6 3 34 c3 35 9 38
96 48 7 0 12 -12 12 -34z m-785 15 c3 -6 -1 -7 -9 -4 -13 5 -16 -1 -16 -26 l0
-32 43 33 c23 18 39 29 35 25 -4 -5 2 -20 13 -35 l20 -26 -28 -7 c-15 -5 -39
-7 -53 -6 -14 1 -35 -3 -47 -10 -12 -7 -23 -12 -25 -12 -2 0 -1 23 1 51 3 57
11 57 21 2 l8 -38 1 48 c1 34 5 47 15 47 8 0 18 -4 21 -10z m1069 -6 c10 -25
7 -51 -6 -62 -10 -8 -13 0 -13 34 0 45 8 57 19 28z m-569 -70 l4 -59 -8 52
c-5 29 -12 61 -15 70 -5 13 -4 15 4 7 6 -6 13 -38 15 -70z m-1338 -91 c-2 -27
-3 -5 -3 47 0 52 1 74 3 48 2 -27 2 -69 0 -95z m1360 75 c-2 -13 -4 -3 -4 22
0 25 2 35 4 23 2 -13 2 -33 0 -45z m-615 13 c-2 -22 -10 -42 -18 -45 -21 -8
-18 54 4 70 9 7 17 14 17 14 0 0 -1 -18 -3 -39z m3772 -62 c-1 -62 -4 -72 -25
-85 l-24 -16 23 21 23 20 -25 7 c-29 7 -36 41 -11 50 8 3 19 21 25 40 6 19 12
34 14 34 1 0 1 -32 0 -71z m-3931 -16 c-7 -2 -19 -2 -25 0 -7 3 -2 5 12 5 14
0 19 -2 13 -5z m-2601 -84 c-5 -142 -13 -197 -30 -204 -9 -3 -58 -5 -110 -4
-69 1 -95 5 -99 15 -3 8 -11 14 -19 14 -8 0 -11 -6 -8 -15 4 -10 0 -15 -10
-15 -12 0 -15 6 -12 23 7 32 18 125 21 177 l2 45 54 12 c30 6 77 12 104 13 28
1 59 5 70 10 35 15 40 6 37 -71z m1408 -56 c0 -123 -1 -127 -17 -103 -9 14
-23 29 -31 33 -11 7 -11 11 2 26 17 19 35 90 36 139 0 17 2 32 5 32 3 0 5 -57
5 -127z m4711 80 c13 -17 13 -17 -6 -3 -11 8 -22 16 -24 17 -2 2 0 3 6 3 6 0
17 -8 24 -17z m34 -43 c10 -11 16 -20 13 -20 -3 0 -13 9 -23 20 -10 11 -16 20
-13 20 3 0 13 -9 23 -20z m395 -4 c0 -2 -8 -10 -17 -17 -16 -13 -17 -12 -4 4
13 16 21 21 21 13z m837 -113 c-2 -21 -4 -4 -4 37 0 41 2 58 4 38 2 -21 2 -55
0 -75z m-7707 33 c0 -8 -4 -18 -10 -21 -5 -3 -10 3 -10 14 0 12 5 21 10 21 6
0 10 -6 10 -14z m6780 0 c0 -2 -8 -10 -17 -17 -16 -13 -17 -12 -4 4 13 16 21
21 21 13z m-4785 -90 c-9 -44 -25 -48 -25 -5 0 17 4 28 10 24 6 -3 10 2 10 11
0 10 3 15 6 12 3 -3 2 -22 -1 -42z m-381 -35 c-9 -12 -20 13 -16 36 l6 28 6
-30 c4 -16 5 -32 4 -34z m1004 -8 c-3 -78 5 -75 -131 -52 l-77 13 2 38 c3 35
5 38 33 38 17 0 47 3 68 6 24 4 37 3 37 -4 0 -6 -6 -9 -14 -6 -14 5 -33 -13
-23 -22 7 -7 87 29 87 39 0 5 -6 7 -13 4 -8 -3 -20 -1 -28 4 -10 6 -2 9 24 9
l38 0 -3 -67z m-578 47 c0 -5 -4 -10 -10 -10 -5 0 -10 5 -10 10 0 6 5 10 10
10 6 0 10 -4 10 -10z m67 -14 c3 -2 -16 -669 -23 -803 -6 -121 -6 -123 -30
-123 -19 0 -24 -5 -25 -27 0 -17 -3 -22 -6 -13 -11 29 -43 40 -43 15 0 -24
-18 -18 -23 8 -4 22 -4 22 -15 -3 -10 -23 -11 -20 -11 26 -1 50 0 53 53 97
l53 46 7 313 c4 172 9 350 13 396 5 78 7 82 27 76 12 -4 22 -7 23 -8z m-1500
-73 c-3 -10 -5 -4 -5 12 0 17 2 24 5 18 2 -7 2 -21 0 -30z m2350 -335 c-1 -68
-3 -13 -3 122 0 135 2 190 3 123 2 -68 2 -178 0 -245z m-1357 336 c0 -2 -12
-4 -27 -4 -21 0 -24 3 -14 9 13 8 41 5 41 -5z m-126 -70 c17 -51 11 -75 -24
-94 -19 -10 -20 -7 -20 65 0 89 19 102 44 29z m6186 16 c0 -5 -4 -10 -10 -10
-5 0 -10 5 -10 10 0 6 5 10 10 10 6 0 10 -4 10 -10z m-3702 -287 c1 -142 -3
-274 -7 -293 -8 -33 -9 -33 -10 -7 -1 16 -6 47 -12 71 -9 38 -14 43 -37 40
-14 -1 -42 3 -62 10 l-37 13 -2 -56 c-3 -80 -9 -74 -13 13 -2 47 0 72 7 66 5
-6 32 -10 60 -10 86 0 89 7 93 230 3 105 8 188 12 185 4 -3 8 -121 8 -262z
m-4765 170 c-3 -49 -8 -122 -12 -163 l-6 -75 -57 -30 c-31 -16 -59 -27 -62
-24 -5 5 8 205 20 316 5 51 6 52 42 56 90 9 82 18 75 -80z m1869 -2 c-4 -10
-1 -12 7 -6 10 6 11 3 2 -14 -7 -11 -14 -21 -16 -21 -3 0 -4 30 -4 68 1 60 2
63 9 27 4 -22 5 -46 2 -54z m1835 12 c-2 -16 -4 -5 -4 22 0 28 2 40 4 28 2
-13 2 -35 0 -50z m4768 39 c17 -10 18 -13 5 -22 -11 -7 -12 -12 -3 -18 6 -4
15 -20 18 -35 6 -21 4 -27 -9 -27 -13 0 -16 -13 -16 -75 0 -69 12 -99 23 -57
4 13 5 12 6 -5 0 -12 -5 -23 -11 -26 -20 -6 -11 -138 10 -154 14 -12 14 -13
-1 -13 -21 0 -22 -16 -3 -27 12 -7 12 -11 0 -27 -7 -11 -16 -18 -18 -15 -3 2
-7 65 -11 139 -3 74 -8 150 -11 169 -5 32 -6 33 -22 15 -14 -16 -20 -62 -12
-94 0 -3 1 -66 1 -140 -1 -74 3 -152 8 -172 5 -20 7 -39 4 -42 -3 -2 -4 -78
-2 -168 7 -390 4 -486 -15 -468 -2 3 -7 70 -9 150 -3 96 -9 146 -16 148 -9 3
-9 7 0 18 17 21 4 43 -23 38 -13 -2 -17 -2 -10 2 6 3 12 14 12 25 0 10 5 19
11 19 17 0 7 149 -10 159 -9 6 -10 11 -2 15 12 8 14 86 5 188 -6 53 -10 65
-22 61 -10 -4 -13 -1 -10 8 3 8 11 13 17 11 7 -1 11 17 11 52 0 74 -11 147
-21 140 -5 -3 -9 0 -9 5 0 6 5 11 11 11 8 0 9 31 4 104 -4 57 -4 109 0 115 8
14 93 10 120 -7z m-5047 -38 c2 -2 1 -21 -3 -44 -7 -39 -8 -41 -66 -57 -51
-14 -59 -20 -57 -37 5 -32 58 -33 95 -2 l30 25 -4 -162 c-2 -89 -6 -222 -9
-294 l-6 -133 -51 0 c-57 0 -60 10 -3 12 22 1 36 6 36 14 0 14 -34 37 -42 29
-2 -3 -12 32 -22 78 -10 45 -23 96 -29 114 -8 24 -7 35 2 47 11 13 11 22 1 46
-7 16 -19 30 -26 30 -8 0 -14 6 -14 13 0 8 -4 7 -10 -3 -8 -13 -10 -12 -11 5
-2 31 2 50 12 53 5 2 9 11 9 20 0 15 -2 14 -17 -1 -14 -14 -19 -38 -21 -110
-1 -51 -6 -139 -11 -197 -9 -97 -9 -92 -5 60 2 91 7 248 10 350 l6 186 101
-20 c56 -11 104 -21 105 -22z m-963 26 c3 -5 1 -10 -4 -10 -6 0 -11 5 -11 10
0 6 2 10 4 10 3 0 8 -4 11 -10z m1465 -80 c0 -75 -3 -92 -16 -97 -14 -5 -16
-17 -11 -77 4 -39 2 -78 -3 -86 -16 -26 -32 39 -25 100 3 30 8 95 11 145 5 82
13 104 37 105 4 0 7 -41 7 -90z m4345 64 c0 -15 6 -18 28 -16 19 2 27 -2 27
-12 0 -8 -12 -27 -27 -41 -18 -16 -24 -28 -17 -33 12 -9 6 -104 -7 -96 -5 3
-9 -21 -9 -52 0 -108 -8 -49 -15 115 -6 135 -5 163 6 159 8 -3 14 -13 14 -24z
m-161 -16 c-5 -81 -21 -130 -31 -100 -10 26 -28 11 -27 -23 1 -31 14 -66 14
-37 0 7 9 12 20 12 13 0 20 -7 20 -20 0 -13 -7 -20 -20 -20 -33 0 -49 -61 -20
-81 12 -9 11 -10 -6 -6 -29 6 -54 -10 -55 -36 -1 -16 -3 -18 -6 -5 -2 9 6 31
19 48 18 25 23 44 22 89 -1 32 -4 70 -7 83 -6 22 -2 28 23 38 34 14 36 20 15
60 -15 30 -15 30 13 30 25 0 28 -3 26 -32z m34 -20 c-2 -32 -8 -52 -16 -54 -7
-1 -8 0 -2 3 7 3 8 23 4 54 -5 35 -3 49 5 49 8 0 11 -17 9 -52z m-3585 27 c-3
-9 -8 -14 -10 -11 -3 3 -2 9 2 15 9 16 15 13 8 -4z m41 -14 c4 -5 -3 -7 -14
-4 -23 6 -26 13 -6 13 8 0 17 -4 20 -9z m-748 -283 c-5 -75 -4 -88 10 -88 17
0 13 -22 -12 -71 -8 -16 -11 -41 -7 -61 3 -21 1 -38 -6 -42 -13 -8 -16 407 -4
490 7 47 8 45 16 -46 4 -52 6 -134 3 -182z m-328 80 c-2 -181 -2 -181 -5 -40
-2 80 -8 142 -13 142 -5 0 -11 -53 -13 -117 -3 -114 -3 -113 -5 35 -2 136 5
180 21 140 3 -8 6 -6 6 5 1 9 3 17 6 17 3 0 4 -82 3 -182z m191 79 c1 -30 -3
-46 -9 -42 -5 3 -9 39 -9 78 1 54 3 65 9 42 4 -16 8 -52 9 -78z m-2621 -49
l-3 -143 -80 -2 c-129 -2 -119 -1 -100 -19 13 -14 29 -15 95 -10 l80 7 0 -35
0 -36 -69 0 c-82 0 -101 6 -101 30 0 13 -13 22 -50 31 l-50 13 0 43 c0 30 4
43 14 43 8 0 16 7 20 15 7 18 -5 20 -22 3 -18 -18 -16 43 2 68 14 19 15 18 37
-5 13 -14 25 -19 27 -13 2 6 10 8 18 5 8 -3 14 -1 14 5 0 6 -5 12 -11 14 -8 3
-6 10 5 21 16 15 16 18 2 33 -19 19 -20 33 -3 40 11 4 135 28 170 33 4 1 6
-63 5 -141z m2365 121 c-3 -11 -15 -24 -27 -29 -12 -4 -28 -16 -36 -25 -20
-24 -58 -37 -78 -26 -19 11 -22 9 49 30 20 7 49 25 64 41 34 36 35 36 28 9z
m976 -52 c-2 -68 -18 -84 -38 -40 -6 13 -7 22 -2 18 11 -6 33 28 30 48 -2 20
1 37 7 37 3 0 4 -28 3 -63z m-2812 37 c-3 -3 -12 -4 -19 -1 -8 3 -5 6 6 6 11
1 17 -2 13 -5z m1500 -41 c-3 -10 -5 -4 -5 12 0 17 2 24 5 18 2 -7 2 -21 0
-30z m5026 -9 c7 -41 1 -61 -18 -61 -8 0 -12 10 -10 26 1 14 -2 31 -7 38 -12
14 -2 33 16 33 8 0 16 -16 19 -36z m-5026 -121 c-2 -21 -4 -4 -4 37 0 41 2 58
4 38 2 -21 2 -55 0 -75z m1289 44 l22 -33 -29 -11 c-22 -8 -31 -8 -39 2 -8 10
-8 15 1 21 8 4 9 3 5 -4 -10 -17 9 -15 23 2 18 21 -12 28 -39 9 -22 -15 -22
-15 -10 8 12 23 29 39 40 39 3 0 15 -15 26 -33z m-2658 -8 c-3 -8 -7 -3 -11
10 -4 17 -3 21 5 13 5 -5 8 -16 6 -23z m-1158 -239 c-7 -113 -14 -207 -17
-210 -5 -5 0 124 14 360 4 63 9 102 11 85 2 -16 -1 -122 -8 -235z m7244 245
c-4 -8 -10 -12 -15 -9 -14 8 -10 24 6 24 9 0 12 -6 9 -15z m-7126 -18 c8 -10
6 -13 -9 -14 -19 -2 -25 8 -12 20 8 9 9 9 21 -6z m2992 -77 c-6 -10 -9 1 -9
35 1 48 1 49 9 15 5 -19 4 -41 0 -50z m4442 65 c15 -20 8 -35 -16 -35 -30 0
-42 16 -26 35 13 16 31 16 42 0z m-3701 -37 c16 -30 13 -91 -12 -211 l-20
-100 23 -26 c12 -14 16 -20 8 -13 -19 16 -30 15 -30 -3 0 -13 -2 -13 -14 -3
-9 8 -10 15 -3 19 5 4 7 14 4 23 -4 9 -2 28 4 43 5 15 7 38 4 51 -6 23 -7 24
-25 7 -30 -27 -23 -5 10 35 30 35 41 67 18 54 -7 -4 -6 1 4 12 22 25 29 132 8
119 -5 -3 -10 -1 -10 4 0 19 19 12 31 -11z m-4164 -60 c-2 -13 -4 -3 -4 22 0
25 2 35 4 23 2 -13 2 -33 0 -45z m7873 -8 c0 -47 -3 -60 -15 -60 -17 0 -20 21
-5 36 7 7 6 11 -4 11 -8 0 -18 -7 -20 -14 -3 -8 -10 -11 -16 -8 -14 9 -13 -8
2 -23 9 -9 7 -12 -10 -12 -27 0 -31 35 -4 45 16 6 16 7 0 16 -21 12 -24 49 -5
49 8 0 19 -10 25 -22 10 -22 11 -22 11 -2 1 20 18 44 33 44 4 0 8 -27 8 -60z
m200 35 c0 -8 -7 -15 -15 -15 -8 0 -15 7 -15 15 0 8 7 15 15 15 8 0 15 -7 15
-15z m-5548 -27 c-7 -7 -12 -8 -12 -2 0 14 12 26 19 19 2 -3 -1 -11 -7 -17z
m5157 -210 l1 -138 -27 1 c-20 1 -22 3 -8 6 18 3 20 11 17 91 -1 48 -5 98 -9
112 -10 39 -11 90 -1 90 4 0 8 7 8 16 0 13 -2 13 -13 2 -7 -7 -14 -38 -15 -67
-1 -30 -7 -58 -12 -61 -6 -4 -5 -24 3 -56 20 -76 8 -84 -17 -12 -16 45 -20 70
-14 87 5 13 5 45 1 70 -4 25 -8 50 -8 55 0 5 18 14 40 21 l40 11 7 -46 c3 -25
7 -107 7 -182z m-4212 -40 c-1 -51 -3 -12 -3 87 0 99 2 141 3 93 2 -48 2 -129
0 -180z m-3781 195 c-3 -32 -8 -104 -12 -161 -4 -64 -11 -105 -18 -107 -6 -2
-33 -6 -60 -9 l-49 -6 7 123 c4 67 10 131 12 142 3 11 26 32 52 46 71 40 75
38 68 -28z m4445 30 c13 -16 12 -17 -3 -4 -10 7 -18 15 -18 17 0 8 8 3 21 -13z
m-1131 -28 c0 -8 -4 -15 -10 -15 -5 0 -10 7 -10 15 0 8 5 15 10 15 6 0 10 -7
10 -15z m1286 -14 c0 -11 -5 -17 -13 -14 -10 4 -11 9 -2 19 15 18 15 18 15 -5z
m-2005 -28 c29 -24 41 -28 96 -27 54 1 64 -2 69 -18 4 -13 -2 -28 -16 -43 -19
-20 -29 -23 -68 -18 -26 3 -55 9 -65 14 -9 6 -21 7 -26 4 -5 -3 -12 4 -16 15
-4 11 -10 18 -14 16 -4 -3 -11 15 -17 40 -9 39 -8 44 7 44 10 0 32 -12 50 -27z
m1146 -3 c-5 -30 -12 -32 -15 -5 -1 14 3 25 8 25 5 0 9 -9 7 -20z m4379 -29
c-22 -22 -41 -3 -20 20 13 15 19 16 25 7 5 -8 2 -19 -5 -27z m-7819 -48 c-2
-16 -4 -3 -4 27 0 30 2 43 4 28 2 -16 2 -40 0 -55z m1823 26 c0 -36 -2 -39
-19 -30 -10 6 -22 7 -26 3 -4 -4 0 10 9 32 9 21 16 40 16 43 0 2 5 1 10 -2 6
-3 10 -24 10 -46z m2457 19 c-3 -7 -5 -2 -5 12 0 14 2 19 5 13 2 -7 2 -19 0
-25z m-3730 0 c-3 -8 -6 -5 -6 6 -1 11 2 17 5 13 3 -3 4 -12 1 -19z m2290
-115 c-2 -27 -3 -5 -3 47 0 52 1 74 3 48 2 -27 2 -69 0 -95z m-2047 67 l0 -60
-102 0 c-88 0 -99 2 -83 13 12 10 15 16 6 21 -10 6 -8 31 5 74 2 8 29 12 89
12 l85 0 0 -60z m7090 43 c0 -5 -4 -15 -10 -23 -11 -18 -25 -7 -17 15 6 15 27
21 27 8z m-3583 -37 c-1 -19 -5 -32 -9 -30 -4 3 -9 -15 -11 -38 -2 -30 -4 -21
-5 27 -1 48 1 65 8 55 8 -13 10 -12 10 3 0 9 2 17 4 17 3 0 4 -15 3 -34z
m2460 12 c-3 -8 -6 -5 -6 6 -1 11 2 17 5 13 3 -3 4 -12 1 -19z m1453 -30 c0
-10 -4 -18 -10 -18 -5 0 -10 15 -10 33 0 24 3 28 10 17 5 -8 10 -23 10 -32z
m-3832 -273 c31 -3 66 -7 76 -8 11 -1 21 -8 22 -15 1 -7 0 -8 -3 -2 -2 5 -19
10 -37 10 -18 0 -54 3 -80 6 l-46 7 2 131 2 131 3 -127 4 -127 57 -6z m3512
245 c0 -5 -5 -10 -11 -10 -5 0 -7 5 -4 10 3 6 8 10 11 10 2 0 4 -4 4 -10z
m180 0 c0 -5 -4 -10 -10 -10 -5 0 -10 5 -10 10 0 6 5 10 10 10 6 0 10 -4 10
-10z m-247 -7 c4 -3 2 -12 -4 -20 -9 -10 -7 -13 9 -13 11 0 22 -8 25 -20 3
-11 1 -20 -4 -20 -20 0 -59 33 -59 49 0 27 18 40 33 24z m392 -93 c4 -63 3
-92 -3 -85 -8 8 -18 145 -13 179 3 26 9 -9 16 -94z m-6415 30 c0 -27 4 -60 10
-74 5 -15 6 -26 1 -26 -5 0 -15 33 -21 73 -7 39 -14 75 -17 79 -2 4 3 5 11 2
12 -4 16 -20 16 -54z m-1024 -96 c-4 -9 -22 -14 -55 -14 -41 0 -49 -3 -45 -15
4 -10 20 -15 50 -15 l44 0 0 -85 0 -84 -85 1 c-77 1 -85 3 -85 20 0 18 -6 20
-45 16 -44 -3 -59 4 -30 16 8 3 12 12 9 21 -3 8 -1 15 5 15 6 0 11 -9 11 -20
0 -15 5 -19 23 -16 16 3 21 9 19 26 -1 13 6 28 15 36 17 12 17 13 1 18 -53 18
-54 18 -25 29 23 9 27 16 25 45 -2 25 -9 37 -29 47 -14 8 -29 11 -33 8 -3 -4
-6 1 -6 9 0 19 21 28 49 21 16 -4 21 -1 21 15 0 20 7 21 83 24 l82 3 3 -54 c2
-30 1 -60 -2 -67z m763 59 c-1 -38 1 -78 5 -91 l8 -23 -25 25 c-38 38 -56 116
-26 116 6 0 8 4 4 9 -4 8 19 29 33 31 1 0 1 -30 1 -67z m777 -22 c-4 -2 -2 -7
5 -11 7 -5 14 -30 16 -57 l3 -48 -19 45 c-10 25 -24 46 -30 46 -6 1 -18 2 -26
3 -8 0 -15 8 -15 16 0 9 7 18 15 21 8 4 15 14 15 23 1 11 5 8 15 -9 14 -25 14
-24 16 20 l2 45 6 -45 c3 -25 2 -47 -3 -49z m-2329 42 c-3 -10 -5 -4 -5 12 0
17 2 24 5 18 2 -7 2 -21 0 -30z m7657 -9 c3 -8 2 -12 -4 -9 -6 3 -10 10 -10
16 0 14 7 11 14 -7z m166 -9 c9 -11 10 -19 2 -27 -14 -14 -32 -1 -32 23 0 23
13 25 30 4z m35 5 c3 -5 1 -10 -4 -10 -6 0 -11 5 -11 10 0 6 2 10 4 10 3 0 8
-4 11 -10z m-3555 -85 l0 -84 33 -5 c33 -5 252 -30 365 -42 34 -4 61 -8 60
-10 -9 -9 -98 -14 -98 -6 0 5 -19 7 -45 4 -25 -2 -45 -1 -45 4 0 5 -33 9 -72
10 -40 0 -133 6 -205 14 -103 11 -133 17 -133 28 0 12 12 14 63 8 l62 -6 -3
85 c-2 56 0 85 7 85 7 0 11 -31 11 -85z m-1340 50 c0 -8 8 -16 18 -18 11 -3 7
-5 -10 -6 -14 0 -29 -7 -31 -13 -3 -8 -6 -6 -6 5 -1 9 5 17 12 18 10 0 10 2 0
6 -7 2 -13 11 -13 19 0 8 6 11 15 8 8 -4 15 -12 15 -19z m3811 -40 l-9 -40 -1
37 c-1 41 11 84 17 58 1 -9 -2 -33 -7 -55z m1129 45 c0 -11 -4 -20 -9 -20 -13
0 -32 26 -24 33 13 14 33 6 33 -13z m-6837 -11 c3 -13 1 -19 -6 -16 -15 5 -22
37 -9 37 5 0 12 -9 15 -21z m1802 0 c11 -16 1 -19 -13 -3 -7 8 -8 14 -3 14 5
0 13 -5 16 -11z m1357 -41 c3 -31 1 -38 -14 -38 -10 0 -18 5 -18 11 0 5 5 7
11 3 7 -4 10 4 9 22 -5 68 6 69 12 2z m-1296 -18 c8 0 14 -8 13 -17 0 -11 -3
-13 -6 -5 -14 36 -23 0 -25 -100 -1 -83 -3 -95 -5 -43 -4 73 -17 101 -33 75
-14 -21 -13 5 0 31 7 13 7 19 0 19 -16 0 -12 27 5 34 8 3 15 16 15 29 0 36 15
43 18 8 2 -19 9 -31 18 -31z m-1192 12 c31 -46 32 -52 6 -52 -11 0 -20 -4 -20
-10 0 -5 4 -10 10 -10 5 0 7 -6 4 -14 -3 -8 3 -16 15 -19 20 -5 20 -7 7 -39
-16 -38 -41 -48 -49 -19 -6 24 0 31 27 31 17 0 18 2 6 9 -8 6 -18 7 -23 4 -5
-3 -8 5 -7 18 1 13 2 26 1 29 -2 6 -7 110 -5 110 1 0 13 -17 28 -38z m5956 32
c0 -8 -19 -13 -24 -6 -3 5 1 9 9 9 8 0 15 -2 15 -3z m160 -20 c0 -8 9 -14 20
-14 10 0 23 -7 28 -16 12 -21 3 -64 -14 -64 -18 0 -24 13 -14 30 11 17 2 40
-16 40 -8 0 -14 5 -14 10 0 6 -5 10 -10 10 -13 0 -1 -52 13 -61 6 -4 6 -15 2
-25 -6 -16 -10 -12 -19 19 -7 22 -20 43 -29 48 -20 12 -23 41 -3 33 8 -3 17
-1 20 5 9 14 36 2 36 -15z m-5003 -6 c-3 -8 -6 -5 -6 6 -1 11 2 17 5 13 3 -3
4 -12 1 -19z m1400 -25 c-3 -10 -5 -2 -5 17 0 19 2 27 5 18 2 -10 2 -26 0 -35z
m3843 43 c0 -3 -4 -8 -10 -11 -5 -3 -10 -1 -10 4 0 6 5 11 10 11 6 0 10 -2 10
-4z m-7492 -18 c-7 -20 -68 -23 -68 -4 0 12 10 16 36 16 24 0 34 -4 32 -12z
m3669 -10 c-3 -8 -6 -5 -6 6 -1 11 2 17 5 13 3 -3 4 -12 1 -19z m-1983 4 c3
-5 -1 -9 -9 -9 -8 0 -12 4 -9 9 3 4 7 8 9 8 2 0 6 -4 9 -8z m856 -82 l0 -80
-52 2 -53 2 48 3 47 4 0 69 0 69 -57 4 -58 3 63 2 62 2 0 -80z m104 64 c9 -24
7 -31 -9 -38 -11 -4 -15 2 -15 24 0 32 14 40 24 14z m-998 -3 c-6 -9 22 -26
36 -23 9 2 21 -63 15 -80 -3 -7 -6 1 -6 19 -1 26 -4 31 -18 27 -14 -5 -15 -4
-4 4 11 8 8 13 -13 27 -22 14 -28 35 -10 35 3 0 3 -4 0 -9z m5983 -26 l-1 -30
-10 28 c-5 15 -14 25 -19 21 -5 -3 -9 -1 -9 5 0 5 9 9 20 8 15 -1 20 -8 19
-32z m-2919 0 c0 -31 -20 -33 -21 -2 -1 21 -1 21 -9 -3 -7 -22 -8 -22 -9 -4
-1 24 7 34 26 34 7 0 13 -11 13 -25z m-2982 -37 c13 -50 24 -118 17 -103 -10
22 -41 154 -34 150 3 -3 11 -24 17 -47z m1562 42 c0 -5 -5 -10 -11 -10 -5 0
-7 5 -4 10 3 6 8 10 11 10 2 0 4 -4 4 -10z m4205 -10 c3 -5 1 -10 -4 -10 -6 0
-11 5 -11 10 0 6 2 10 4 10 3 0 8 -4 11 -10z m-5475 -15 c0 -8 -4 -15 -10 -15
-5 0 -10 7 -10 15 0 8 5 15 10 15 6 0 10 -7 10 -15z m3121 6 c-9 -6 -11 -16
-6 -32 8 -23 7 -23 -19 -6 -15 10 -31 15 -36 12 -6 -3 -10 -4 -10 -1 0 7 59
34 75 35 6 0 4 -3 -4 -8z m-3964 -7 c-3 -3 -12 -4 -19 -1 -8 3 -5 6 6 6 11 1
17 -2 13 -5z m1732 -137 c19 -31 21 -49 21 -171 0 -131 -9 -184 -31 -171 -5 4
-9 1 -9 -4 0 -6 -4 -11 -10 -11 -6 0 -9 94 -8 253 0 153 4 230 8 195 4 -31 17
-72 29 -91z m628 111 c-3 -7 -5 -2 -5 12 0 14 2 19 5 13 2 -7 2 -19 0 -25z
m-2593 -37 c48 -58 58 -78 51 -101 -11 -33 -25 -22 -25 19 0 35 -19 68 -32 55
-3 -3 -5 2 -4 11 2 25 -32 44 -44 25 -6 -9 -10 -10 -10 -3 0 8 -9 7 -29 -5
-37 -21 -54 -7 -23 18 12 10 22 23 22 28 0 24 60 -6 94 -47z m1303 27 c-3 -8
-6 -5 -6 6 -1 11 2 17 5 13 3 -3 4 -12 1 -19z m2463 -12 c0 -29 -3 -33 -20
-29 -23 6 -27 43 -5 43 8 0 15 5 15 10 0 6 2 10 5 10 3 0 5 -15 5 -34z m-3055
4 c-3 -5 -12 -10 -18 -10 -7 0 -6 4 3 10 19 12 23 12 15 0z m3450 -30 c9 0 15
-9 15 -22 0 -21 0 -21 -26 3 -14 13 -30 33 -36 44 -9 17 -8 17 11 -2 12 -13
28 -23 36 -23z m293 6 c-1 -14 -5 -23 -9 -20 -7 4 0 44 7 44 2 0 3 -11 2 -24z
m-3030 3 c-2 -6 -8 -10 -13 -10 -5 0 -11 4 -13 10 -2 6 4 11 13 11 9 0 15 -5
13 -11z m4942 -24 c0 -8 -4 -15 -9 -15 -13 0 -22 16 -14 24 11 11 23 6 23 -9z
m-3806 -20 c-4 -9 -1 -29 6 -46 7 -16 10 -32 7 -35 -8 -8 -29 65 -23 81 3 8 8
15 10 15 3 0 3 -7 0 -15z m354 8 c-21 -2 -57 -2 -80 0 -24 2 -7 4 37 4 44 0
63 -2 43 -4z m1382 -18 c-13 -14 -27 -25 -32 -25 -9 0 42 49 51 50 3 0 -6 -11
-19 -25z m-4061 -12 c0 -25 -1 -25 -8 -8 -5 11 -7 23 -4 28 8 14 13 7 12 -20z
m3531 2 c0 -17 -4 -23 -15 -19 -8 4 -12 10 -9 15 3 5 0 9 -5 9 -6 0 -11 5 -11
10 0 6 9 10 20 10 15 0 20 -7 20 -25z m2555 15 c-3 -5 -10 -10 -16 -10 -5 0
-9 5 -9 10 0 6 7 10 16 10 8 0 12 -4 9 -10z m-6133 -26 c-27 -19 -28 -36 -2
-59 20 -18 41 -57 79 -147 19 -45 41 -64 41 -35 1 6 7 1 15 -13 12 -21 12 -28
0 -47 -8 -12 -14 -34 -14 -50 1 -15 -6 -59 -14 -98 -8 -38 -18 -112 -22 -162
l-7 -93 -37 0 c-21 0 -62 7 -92 16 l-54 17 35 13 c19 7 60 13 90 14 50 2 52 3
24 11 -30 8 -32 12 -48 96 -12 66 -16 133 -14 265 2 97 0 174 -4 172 -6 -4
-15 89 -10 106 2 6 16 10 30 10 l26 0 -22 -16z m4013 6 c3 -5 2 -10 -4 -10 -5
0 -13 5 -16 10 -3 6 -2 10 4 10 5 0 13 -4 16 -10z m2165 1 c0 -6 -4 -13 -10
-16 -5 -3 -10 1 -10 9 0 9 5 16 10 16 6 0 10 -4 10 -9z m-6373 -33 c-3 -7 -5
-2 -5 12 0 14 2 19 5 13 2 -7 2 -19 0 -25z m2542 9 c12 -15 12 -17 -3 -11 -9
3 -16 13 -16 22 0 8 1 13 3 11 1 -2 9 -12 16 -22z m-2306 -10 c7 3 9 3 5 -2
-4 -4 -2 -15 4 -24 8 -10 4 -9 -10 3 -12 11 -22 24 -21 30 0 6 3 6 6 -2 2 -6
10 -9 16 -5z m2677 -8 c0 -6 -4 -7 -10 -4 -5 3 -10 11 -10 16 0 6 5 7 10 4 6
-3 10 -11 10 -16z m-3802 -25 c2 -22 0 -26 -7 -14 -9 12 -11 10 -11 -12 0 -14
4 -28 9 -30 5 -1 3 -9 -5 -16 -12 -11 -14 -9 -14 13 0 18 -5 25 -19 25 -28 0
-37 20 -12 27 16 4 20 11 16 24 -5 16 -2 18 17 16 17 -3 24 -11 26 -33z m118
-41 c-3 -42 -6 -89 -6 -105 0 -28 -2 -29 -37 -26 l-38 3 -1 61 c-1 34 -4 80
-8 103 l-5 41 51 0 51 0 -7 -77z m3072 -5 c0 -25 -5 -37 -12 -35 -6 2 -11 13
-10 25 0 12 -3 19 -7 16 -17 -10 -18 17 -2 34 22 23 32 10 31 -40z m-930 -72
l-2 -101 -3 94 c-2 52 -9 101 -15 108 -8 11 -7 12 6 7 14 -5 16 -22 14 -108z
m1207 57 l-6 -26 -24 23 -25 23 28 17 c31 19 39 9 27 -37z m4130 47 c3 -5 1
-10 -4 -10 -6 0 -11 5 -11 10 0 6 2 10 4 10 3 0 8 -4 11 -10z m-6715 -16 c0
-8 -5 -12 -10 -9 -6 4 -8 11 -5 16 9 14 15 11 15 -7z m24 -61 c-4 -32 -12 -62
-19 -68 -6 -5 -15 -36 -19 -69 -3 -32 -11 -67 -17 -78 -7 -14 -7 -29 0 -50 14
-40 7 -47 -15 -14 -16 25 -18 26 -36 10 -15 -14 -21 -15 -31 -5 -10 10 -8 12
8 9 16 -2 21 5 29 46 8 45 7 51 -13 67 -24 19 -21 42 4 32 14 -5 20 7 16 30
-1 5 3 6 9 2 13 -8 13 1 -1 28 l-10 22 18 -22 c14 -17 22 -20 33 -12 11 8 12
12 3 16 -7 2 -13 14 -13 26 1 19 3 18 18 -8 l17 -30 3 40 c3 48 11 85 17 85 3
0 2 -26 -1 -57z m2290 -25 c3 -13 7 -57 9 -98 2 -41 2 -63 0 -47 -5 31 -10 33
-35 10 -24 -22 -23 -35 8 -68 21 -23 28 -25 35 -14 6 10 9 7 9 -13 0 -15 -11
-39 -26 -55 l-25 -28 23 34 c19 28 20 35 8 39 -18 6 -70 57 -70 69 0 5 12 22
28 39 22 25 30 51 23 79 0 3 -1 8 0 12 0 4 -8 10 -18 14 -15 6 -14 8 7 8 19 1
21 4 12 13 -15 15 -16 28 -2 28 5 0 12 -10 14 -22z m272 -25 c7 -49 -1 -93
-17 -93 -8 0 -8 4 0 14 12 14 2 27 -29 39 -10 4 -7 6 8 6 24 1 25 4 16 39 -4
13 -14 22 -25 22 -11 0 -19 4 -19 10 0 5 13 8 30 7 27 -2 30 -6 36 -44z m1894
7 c-6 -10 -10 -30 -10 -44 0 -14 -4 -28 -10 -31 -6 -3 -10 4 -10 17 0 13 -4
30 -9 38 -13 20 -2 33 16 19 12 -11 13 -8 7 17 -7 26 -6 28 9 15 12 -10 14
-18 7 -31z m1137 -2 c-3 -8 -6 -5 -6 6 -1 11 2 17 5 13 3 -3 4 -12 1 -19z
m-1073 -14 c3 -9 13 -106 21 -216 8 -110 17 -204 20 -208 3 -5 -13 -11 -35
-15 -22 -4 -40 -10 -40 -15 0 -4 -8 -11 -17 -15 -15 -5 -16 -4 -5 6 6 7 12 22
12 32 0 21 -67 129 -83 136 -5 2 -4 7 3 11 7 4 11 14 8 21 -3 8 -5 17 -4 21 0
3 -9 17 -21 30 -19 20 -20 25 -7 42 12 17 12 22 -3 38 -15 17 -15 18 5 18 18
0 21 -7 24 -47 l3 -48 37 76 c34 68 45 100 47 137 1 17 28 15 35 -4z m-1034
-130 c0 -47 -4 -83 -9 -80 -5 3 -12 -1 -15 -10 -8 -20 2 -54 15 -54 5 0 8 -12
8 -27 -1 -17 -3 -21 -6 -10 -5 20 -19 22 -26 5 -3 -7 -6 38 -6 100 -1 93 2
118 17 137 9 14 18 25 20 25 1 0 2 -39 2 -86z m1710 65 c0 -11 -4 -18 -9 -14
-6 3 -14 -3 -20 -12 -10 -17 -10 -17 -11 0 0 10 -4 16 -10 12 -5 -3 -7 -12 -3
-20 3 -8 -1 -15 -8 -15 -7 0 -9 3 -6 6 3 4 2 15 -4 25 -7 14 -6 17 3 14 7 -3
24 1 38 9 14 8 26 14 28 15 1 1 2 -8 2 -20z m-797 -5 c3 -3 3 -13 0 -21 -5
-12 -7 -12 -14 -1 -15 23 -4 40 14 22z m-3613 -95 c0 -79 -2 -89 -15 -76 -11
12 -12 22 -4 51 6 21 8 43 5 49 -2 7 -5 2 -5 -11 -1 -13 -5 -21 -10 -17 -8 5
17 95 26 95 2 0 3 -41 3 -91z m1250 80 c0 -5 5 -7 10 -4 6 4 10 -16 10 -52 0
-58 0 -59 -30 -61 l-30 -2 0 65 c0 58 2 65 20 65 11 0 20 -5 20 -11z m4569
-71 c-1 -97 -6 -93 -12 10 -2 39 0 72 4 72 5 0 9 -37 8 -82z m-8533 45 c-10
-10 -19 5 -10 18 6 11 8 11 12 0 2 -7 1 -15 -2 -18z m1122 -30 c-3 -48 -5 -50
-47 -44 -13 1 -1 74 13 83 28 19 37 8 34 -39z m2412 -31 c0 -21 -6 -44 -12
-51 -11 -11 -10 -13 5 -8 16 6 18 2 15 -25 -2 -22 -9 -34 -20 -36 -16 -3 -18
6 -18 77 0 65 3 81 15 81 11 0 15 -11 15 -38z m3040 -259 c0 -2 -11 -3 -25 -3
-25 0 -25 2 -25 78 0 42 -3 95 -6 117 -2 22 9 -12 26 -75 16 -63 30 -116 30
-117z m-5422 203 c8 -9 -13 -36 -29 -36 -19 0 -21 -7 -34 -112 -6 -43 -4 -48
13 -48 18 0 19 -5 15 -42 -3 -24 -12 -49 -21 -55 -18 -15 -36 -17 -28 -4 11
17 -31 23 -153 21 -98 -1 -122 1 -119 12 3 7 23 14 49 16 24 1 58 7 76 13 22
7 38 7 52 0 30 -16 33 -2 25 109 -6 89 -5 100 10 100 12 0 16 -10 16 -47 1
-27 7 -75 14 -108 l12 -60 13 108 c7 59 17 107 22 107 17 0 9 16 -8 17 -10 1
-36 7 -58 12 -33 8 -24 9 45 5 47 -3 86 -7 88 -8z m-88 -36 c0 -5 -4 -10 -9
-10 -5 0 -12 -8 -14 -17 -3 -11 -5 -7 -6 10 -1 18 4 27 14 27 8 0 15 -4 15
-10z m2512 -34 c2 -19 0 -32 -4 -30 -8 5 -12 64 -4 64 2 0 6 -15 8 -34z m3525
2 c-3 -7 -5 -2 -5 12 0 14 2 19 5 13 2 -7 2 -19 0 -25z m-2922 4 c-3 -3 -11 0
-18 7 -9 10 -8 11 6 5 10 -3 15 -9 12 -12z m2017 -74 c0 -14 6 -29 14 -32 27
-10 16 -36 -16 -36 -26 0 -30 4 -30 26 0 16 4 23 12 18 8 -5 10 7 5 47 -4 43
-3 49 5 29 5 -14 10 -37 10 -52z m-5081 9 c-8 -8 -11 -7 -11 4 0 20 13 34 18
19 3 -7 -1 -17 -7 -23z m2324 -4 c10 -14 19 -37 20 -52 2 -14 7 -49 12 -78 6
-29 7 -50 3 -48 -4 3 -10 21 -13 41 -3 19 -16 56 -28 80 -12 25 -19 48 -15 51
3 4 -2 15 -11 25 -15 17 -15 18 -1 13 9 -4 24 -18 33 -32z m793 -20 c0 -32 -2
-50 -5 -40 -3 11 -14 28 -24 38 -21 21 -16 44 7 35 8 -3 14 1 14 9 0 8 2 15 4
15 2 0 3 -26 4 -57z m-3438 15 c-39 -17 -140 -18 -140 -2 0 11 19 14 83 13 69
0 78 -2 57 -11z m2510 -13 c0 -8 -4 -15 -10 -15 -5 0 -10 7 -10 15 0 8 5 15
10 15 6 0 10 -7 10 -15z m3070 -40 c0 -9 -6 -12 -15 -9 -8 4 -15 10 -15 15 0
5 7 9 15 9 8 0 15 -7 15 -15z m-981 -49 c-22 -20 -22 -20 -6 0 9 11 17 27 18
35 0 11 2 11 6 0 3 -7 -5 -23 -18 -35z m1014 -21 c-3 -9 -8 -14 -10 -11 -3 3
-2 9 2 15 9 16 15 13 8 -4z m-4232 -66 c-10 -24 -10 -24 -10 -1 -1 16 -7 22
-23 23 -18 1 -16 3 7 8 35 8 39 3 26 -30z m1769 31 c-20 -13 -33 -13 -25 0 3
6 14 10 23 10 15 0 15 -2 2 -10z m2499 -22 l-1 -33 -11 27 c-7 17 -20 28 -36
31 -19 3 -16 4 12 6 36 1 37 0 36 -31z m-4332 16 c-3 -3 -12 -4 -19 -1 -8 3
-5 6 6 6 11 1 17 -2 13 -5z m2146 -11 c-7 -2 -19 -2 -25 0 -7 3 -2 5 12 5 14
0 19 -2 13 -5z m60 0 c-7 -2 -21 -2 -30 0 -10 3 -4 5 12 5 17 0 24 -2 18 -5z
m-1046 -25 c-3 -8 -6 -5 -6 6 -1 11 2 17 5 13 3 -3 4 -12 1 -19z m-2457 2 c0
-5 -8 -10 -17 -10 -15 0 -16 2 -3 10 19 12 20 12 20 0z m165 0 c4 -6 -14 -10
-47 -9 -49 2 -50 2 -18 9 52 11 58 11 65 0z m3225 -6 c0 -8 -5 -12 -10 -9 -6
4 -8 11 -5 16 9 14 15 11 15 -7z m1190 -5 c-7 -11 -14 -18 -17 -15 -3 3 0 12
7 21 18 21 23 19 10 -6z m317 -11 c-3 -8 -6 -5 -6 6 -1 11 2 17 5 13 3 -3 4
-12 1 -19z m-4465 0 c54 -2 98 -6 98 -10 0 -5 -52 -8 -115 -8 -90 0 -117 -3
-121 -14 -6 -16 -44 -29 -44 -15 0 5 8 9 18 10 10 0 12 3 5 6 -7 2 -13 14 -13
25 0 17 5 19 38 14 20 -3 81 -7 134 -8z m315 -10 c-3 -8 -6 -5 -6 6 -1 11 2
17 5 13 3 -3 4 -12 1 -19z m3131 15 c-38 -2 -98 -2 -135 0 -38 2 -7 3 67 3 74
0 105 -1 68 -3z m515 0 c-7 -2 -19 -2 -25 0 -7 3 -2 5 12 5 14 0 19 -2 13 -5z
m-3026 -16 c14 -23 -20 -28 -166 -21 -83 4 -151 11 -151 15 0 5 44 10 98 12
159 5 213 4 219 -6z m2950 7 c-3 -3 -12 -4 -19 -1 -8 3 -5 6 6 6 11 1 17 -2
13 -5z m142 -16 c-1 -21 -2 -22 -8 -3 -3 11 -8 -15 -12 -60 l-5 -80 -2 83 c-2
67 1 82 13 82 9 0 15 -9 14 -22z m-4249 -15 l0 -26 -25 23 c-20 19 -31 22 -67
17 -24 -3 -50 -2 -58 3 -10 7 12 10 68 10 l82 0 0 -27z m3253 10 c-13 -2 -35
-2 -50 0 -16 2 -5 4 22 4 28 0 40 -2 28 -4z m1687 -22 c3 -6 51 -14 106 -17
54 -3 115 -10 134 -15 26 -6 14 -7 -44 -4 -43 3 -227 5 -408 5 -282 0 -328 2
-328 15 0 12 24 15 133 17 72 2 192 4 266 6 87 2 136 0 141 -7z m-3444 -50
c-1 -18 -5 -27 -13 -24 -7 3 -10 10 -6 17 5 8 3 8 -8 0 -8 -7 -35 -10 -62 -9
-34 3 -45 0 -41 -8 4 -7 -1 -5 -11 4 -10 10 -15 24 -11 35 5 17 15 19 79 16
74 -3 74 -4 73 -31z m4103 14 c1 -2 1 -7 -2 -12 -7 -11 -177 -4 -177 7 0 14
164 18 179 5z m381 -5 c34 -9 -120 -22 -259 -22 -71 1 -108 -3 -113 -11 -5 -9
-8 -8 -8 3 0 20 11 35 30 43 19 8 315 -3 350 -13z m520 -69 c0 -74 -1 -79 -20
-74 -23 6 -27 23 -5 23 10 0 15 11 15 35 0 19 -3 34 -7 34 -24 -4 -33 4 -33
25 0 18 7 26 23 29 12 2 23 5 25 6 1 0 2 -35 2 -78z m-5362 52 c3 -10 -27 -13
-127 -13 -132 0 -190 16 -84 23 112 7 206 3 211 -10z m3532 10 c0 -5 121 -8
270 -8 212 0 271 -3 275 -13 3 -10 30 -13 100 -11 52 1 95 4 95 8 0 3 41 5 91
3 50 -2 89 -5 87 -7 -10 -10 -91 -14 -418 -19 -195 -4 -389 -9 -430 -13 -41
-4 -84 -7 -95 -6 -11 0 -73 1 -137 2 -93 1 -118 4 -118 15 0 9 17 15 48 19 26
3 67 8 92 11 25 3 64 7 87 8 22 2 39 6 36 11 -2 4 1 7 6 7 6 0 11 -3 11 -7z
m1627 -14 c-3 -12 -2 -32 3 -45 12 -32 8 -30 -19 7 -18 24 -20 33 -11 45 18
21 33 17 27 -7z m103 -9 c0 -26 -4 -30 -26 -30 -14 0 -23 -4 -19 -10 3 -5 2
-10 -3 -10 -14 0 -20 58 -8 70 5 5 20 10 33 10 19 0 23 -5 23 -30z m-4973 -16
c-3 -3 -12 -4 -19 -1 -8 3 -5 6 6 6 11 1 17 -2 13 -5z m2954 -43 c-6 -4 -8
-19 -5 -35 3 -16 1 -25 -5 -22 -5 3 -12 0 -14 -6 -3 -7 -6 7 -6 33 -1 50 17
80 32 53 6 -11 5 -19 -2 -23z m1594 1 c3 -12 1 -31 -5 -42 -7 -13 -7 -26 -1
-38 8 -15 6 -18 -7 -18 -114 0 -202 -6 -198 -12 3 -5 -4 -16 -14 -25 -18 -15
-19 -13 -26 39 l-6 55 -113 -3 c-63 -1 -111 -6 -109 -10 3 -5 0 -8 -5 -8 -6 0
-11 5 -11 10 0 6 -9 10 -20 10 -11 0 -20 -5 -20 -11 0 -7 -10 -9 -25 -7 -13 3
-22 2 -20 -2 6 -10 -26 -23 -34 -15 -3 3 1 10 9 15 8 5 12 11 10 13 -3 3 -90
7 -194 10 -147 4 -192 2 -202 -8 -10 -9 -72 -14 -221 -19 -114 -3 -245 -8
-290 -11 -81 -4 -83 -4 -83 19 0 21 6 24 58 29 31 4 136 9 232 13 270 10 294
9 270 -6 -21 -13 -12 -13 114 10 109 19 450 35 783 35 119 0 122 0 128 -23z
m-4580 -2 c8 -12 -23 -6 -37 8 -8 8 -5 9 11 5 12 -3 24 -9 26 -13z m4983 -16
c27 -8 31 -44 5 -44 -24 0 -37 11 -41 33 -3 18 1 20 36 11z m-5277 -13 c-8 -5
-21 -7 -30 -4 -14 4 -14 3 -1 -6 8 -5 11 -14 6 -18 -4 -4 -13 0 -20 10 -16 21
-27 22 -20 2 4 -8 1 -15 -5 -15 -6 0 -11 4 -11 9 0 5 -7 11 -14 14 -11 4 -13
1 -9 -11 6 -15 5 -16 -12 -2 -11 9 -16 10 -11 3 12 -20 -12 -15 -34 7 l-20 20
98 0 c61 0 92 -4 83 -9z m-187 -21 c7 -7 -21 -10 -78 -10 -60 0 -85 -3 -80
-11 3 -6 -7 -4 -23 4 -22 12 -56 15 -143 12 -65 -2 -116 -8 -118 -13 -2 -7
-39 -9 -98 -6 -55 3 -93 1 -90 -4 3 -5 -7 -9 -22 -9 -15 0 -170 -3 -344 -6
-209 -5 -318 -4 -318 3 0 6 26 10 58 11 31 0 75 2 97 5 22 3 96 6 165 7 69 2
199 6 290 11 564 26 683 27 704 6z m3054 13 c-10 -2 -26 -2 -35 0 -10 3 -2 5
17 5 19 0 27 -2 18 -5z m-3945 -20 c-13 -2 -33 -2 -45 0 -13 2 -3 4 22 4 25 0
35 -2 23 -4z m1415 -10 c-10 -2 -26 -2 -35 0 -10 3 -2 5 17 5 19 0 27 -2 18
-5z m4270 -17 c3 -14 -2 -17 -30 -16 -18 1 -35 1 -38 0 -3 -1 -20 -4 -37 -6
-30 -5 -33 -3 -33 19 0 24 2 25 67 23 57 -1 68 -4 71 -20z m-210 -9 c-8 -8
-33 -16 -56 -19 -35 -3 -42 -1 -42 14 0 13 11 18 53 20 62 4 63 3 45 -15z m62
16 c0 -17 -19 -35 -29 -29 -18 12 -12 36 9 36 11 0 20 -3 20 -7z m-6053 -9
c-3 -3 -12 -4 -19 -1 -8 3 -5 6 6 6 11 1 17 -2 13 -5z m1403 -14 c0 -5 -22 -8
-50 -6 -27 1 -51 -1 -52 -4 -2 -3 -28 -2 -58 1 -53 5 -53 6 -12 7 24 1 41 5
39 10 -3 4 26 6 64 4 38 -2 69 -7 69 -12z m-393 4 c-3 -3 -12 -4 -19 -1 -8 3
-5 6 6 6 11 1 17 -2 13 -5z m622 2 c-8 -8 -208 -11 -215 -3 -4 4 44 7 106 7
62 0 111 -2 109 -4z m6426 -6 c17 -7 15 -9 -12 -9 -18 -1 -33 4 -33 9 0 12 17
12 45 0z m-6878 -6 c-3 -3 -12 -4 -19 -1 -8 3 -5 6 6 6 11 1 17 -2 13 -5z
m4686 -1 c-7 -2 -19 -2 -25 0 -7 3 -2 5 12 5 14 0 19 -2 13 -5z m2074 1 c-3
-3 -12 -4 -19 -1 -8 3 -5 6 6 6 11 1 17 -2 13 -5z m50 0 c-3 -3 -12 -4 -19 -1
-8 3 -5 6 6 6 11 1 17 -2 13 -5z m-7074 -11 c-7 -2 -19 -2 -25 0 -7 3 -2 5 12
5 14 0 19 -2 13 -5z m44 1 c-3 -3 -12 -4 -19 -1 -8 3 -5 6 6 6 11 1 17 -2 13
-5z m5448 -4 c3 -5 -3 -10 -15 -10 -12 0 -18 5 -15 10 3 6 10 10 15 10 5 0 12
-4 15 -10z m-5797 -7 c-10 -2 -28 -2 -40 0 -13 2 -5 4 17 4 22 1 32 -1 23 -4z
m110 0 c-10 -2 -28 -2 -40 0 -13 2 -5 4 17 4 22 1 32 -1 23 -4z m5749 -40 c-3
-10 -5 -2 -5 17 0 19 2 27 5 18 2 -10 2 -26 0 -35z m-154 20 c-7 -2 -19 -2
-25 0 -7 3 -2 5 12 5 14 0 19 -2 13 -5z m-1406 -10 c-25 -4 -27 -7 -15 -20 12
-15 9 -16 -21 -10 -18 4 -144 7 -279 7 -135 0 -242 3 -238 7 4 4 125 10 269
13 334 8 319 8 284 3z m1348 -14 c-4 -5 3 -9 14 -9 10 0 22 6 24 13 4 7 6 6 6
-5 1 -9 8 -18 16 -20 9 -2 12 -8 6 -16 -5 -9 -17 -11 -34 -7 -15 4 -24 11 -21
16 9 15 -6 10 -24 -8 -16 -16 -17 -15 -20 12 -2 15 2 31 9 36 16 9 32 1 24
-12z m-363 -40 c6 -4 1 -10 -11 -14 -37 -11 -24 -31 20 -29 23 0 56 -2 73 -7
23 -5 12 -7 -43 -8 -92 -1 -86 -13 9 -17 51 -3 72 0 76 9 4 11 50 13 209 13
167 -1 204 -4 200 -14 -3 -8 -5 -18 -5 -23 0 -5 -28 -9 -62 -9 -35 0 -80 -4
-100 -9 -21 -5 -38 -6 -38 -2 0 3 -39 7 -88 7 -68 1 -77 0 -42 -6 59 -9 -71
-14 -365 -12 -127 1 -198 -2 -180 -7 29 -8 28 -9 -15 -11 -89 -5 -157 -4 -253
4 -78 6 -97 11 -93 22 3 8 1 14 -4 14 -6 0 -10 -6 -10 -14 0 -11 -57 -13 -330
-12 -212 1 -330 5 -330 11 0 6 -4 4 -9 -4 -8 -13 -12 -13 -27 0 -11 9 -15 9
-10 2 5 -10 -12 -13 -76 -11 l-83 2 70 6 c39 4 57 8 40 10 -35 3 54 16 183 26
56 4 82 2 82 -5 0 -6 7 -11 15 -11 8 0 15 5 15 10 0 6 33 10 80 10 57 0 80 4
80 13 0 8 3 9 8 1 8 -13 952 -14 952 -1 0 4 -80 8 -177 9 l-178 2 170 4 170 3
19 26 c11 15 14 23 8 19 -6 -3 -13 -2 -17 4 -3 5 1 10 9 10 9 0 21 9 28 20 13
21 13 21 17 -2 1 -13 8 -26 13 -29z m2173 41 c4 -6 -5 -10 -19 -10 -14 0 -26
5 -26 10 0 6 9 10 19 10 11 0 23 -4 26 -10z m-2667 -17 c-10 -2 -26 -2 -35 0
-10 3 -2 5 17 5 19 0 27 -2 18 -5z m49 1 c-3 -3 -12 -4 -19 -1 -8 3 -5 6 6 6
11 1 17 -2 13 -5z m-6134 -21 c-13 -2 -33 -2 -45 0 -13 2 -3 4 22 4 25 0 35
-2 23 -4z m1084 1 c-3 -3 -12 -4 -19 -1 -8 3 -5 6 6 6 11 1 17 -2 13 -5z
m5683 -4 c0 -5 -11 -10 -25 -10 -14 0 -25 5 -25 10 0 6 11 10 25 10 14 0 25
-4 25 -10z m1697 -17 c-20 -2 -52 -2 -70 0 -17 2 0 4 38 4 39 0 53 -2 32 -4z
m322 -9 c11 -10 -18 -24 -49 -25 -56 -1 -160 13 -155 22 3 4 32 5 65 2 42 -3
60 -2 60 6 0 8 12 10 38 5 20 -4 39 -8 41 -10z m-1854 -4 c3 -5 -1 -10 -10
-10 -9 0 -13 5 -10 10 3 6 8 10 10 10 2 0 7 -4 10 -10z m113 -5 c3 -3 -15 -5
-41 -5 -25 0 -49 5 -53 11 -5 8 7 10 41 6 26 -4 50 -9 53 -12z m1774 0 c0 -5
-5 -11 -11 -13 -6 -2 -11 4 -11 13 0 9 5 15 11 13 6 -2 11 -8 11 -13z m-3452
-5 c0 -6 -33 -10 -80 -11 -44 0 -94 -1 -112 -2 -17 0 -33 4 -35 9 -2 5 47 10
112 12 73 1 115 -1 115 -8z m60 0 c0 -5 -4 -10 -10 -10 -5 0 -10 5 -10 10 0 6
5 10 10 10 6 0 10 -4 10 -10z m2090 6 c0 -2 -9 -6 -20 -9 -11 -3 -18 -1 -14 4
5 9 34 13 34 5z m940 -6 c-55 -4 -67 -7 -45 -12 26 -5 -34 -4 -105 3 -41 4 79
16 155 16 l70 -1 -75 -6z m107 4 c-3 -3 -12 -4 -19 -1 -8 3 -5 6 6 6 11 1 17
-2 13 -5z m-3014 -11 c-7 -2 -19 -2 -25 0 -7 3 -2 5 12 5 14 0 19 -2 13 -5z
m327 -3 c0 -5 -2 -10 -4 -10 -3 0 -8 5 -11 10 -3 6 -1 10 4 10 6 0 11 -4 11
-10z m232 -2 c7 -4 -40 -8 -104 -8 -77 0 -118 4 -118 11 0 12 202 10 222 -3z
m-1629 -5 c-7 -2 -19 -2 -25 0 -7 3 -2 5 12 5 14 0 19 -2 13 -5z m1674 1 c-3
-3 -12 -4 -19 -1 -8 3 -5 6 6 6 11 1 17 -2 13 -5z m1787 -9 c6 -18 -16 -19
-180 -7 l-109 7 80 6 c162 11 202 10 209 -6z m-361 -12 c-13 -2 -35 -2 -50 0
-16 2 -5 4 22 4 28 0 40 -2 28 -4z m-83 -17 c0 -3 -4 -8 -10 -11 -5 -3 -10 -1
-10 4 0 6 5 11 10 11 6 0 10 -2 10 -4z m-4405 -16 c-89 -5 -78 -6 100 -10
l200 -3 -275 -7 c-316 -8 -462 -21 -468 -40 -2 -6 -18 -11 -35 -11 -24 -1 -19
-4 18 -9 28 -5 164 -9 303 -10 139 0 250 -4 248 -8 -4 -7 -385 -6 -671 1 -71
2 -147 2 -167 -1 -34 -4 -37 -7 -40 -40 -3 -37 -3 -37 -52 -39 -54 -2 -98 13
-76 27 26 16 -51 21 -343 22 -395 1 -388 11 23 35 73 4 106 9 90 14 -14 4 -41
7 -60 8 -21 1 -30 5 -25 10 6 5 89 14 185 21 96 6 194 15 218 19 23 5 42 4 42
0 0 -5 42 -9 93 -9 63 0 87 3 77 10 -11 7 0 10 40 11 30 1 127 4 215 8 88 3
228 6 310 7 137 1 141 0 50 -6z m622 4 c-3 -3 -12 -4 -19 -1 -8 3 -5 6 6 6 11
1 17 -2 13 -5z m1213 -4 c0 -5 -7 -7 -15 -4 -8 4 -15 8 -15 10 0 2 7 4 15 4 8
0 15 -4 15 -10z m70 6 c0 -9 -39 -13 -51 -5 -10 6 -4 9 19 9 17 0 32 -2 32 -4z
m47 -2 c-3 -3 -12 -4 -19 -1 -8 3 -5 6 6 6 11 1 17 -2 13 -5z m-370 -10 c-3
-3 -12 -4 -19 -1 -8 3 -5 6 6 6 11 1 17 -2 13 -5z m-1219 -11 c-10 -2 -26 -2
-35 0 -10 3 -2 5 17 5 19 0 27 -2 18 -5z m369 1 c-3 -3 -12 -4 -19 -1 -8 3 -5
6 6 6 11 1 17 -2 13 -5z m1040 0 c-3 -3 -12 -4 -19 -1 -8 3 -5 6 6 6 11 1 17
-2 13 -5z m-784 -11 c-29 -2 -78 -2 -110 0 -32 2 -8 3 52 3 61 0 87 -1 58 -3z
m854 1 c-3 -3 -12 -4 -19 -1 -8 3 -5 6 6 6 11 1 17 -2 13 -5z m638 -4 c4 -6
-6 -10 -22 -9 -25 0 -26 1 -8 9 11 5 21 9 22 9 1 1 5 -3 8 -9z m80 0 c3 -5 2
-10 -4 -10 -5 0 -13 5 -16 10 -3 6 -2 10 4 10 5 0 13 -4 16 -10z m-1797 -27
c-10 -2 -28 -2 -40 0 -13 2 -5 4 17 4 22 1 32 -1 23 -4z m49 1 c-3 -3 -12 -4
-19 -1 -8 3 -5 6 6 6 11 1 17 -2 13 -5z m120 -20 c-3 -3 -12 -4 -19 -1 -8 3
-5 6 6 6 11 1 17 -2 13 -5z m481 -1 c-27 -2 -69 -2 -95 0 -27 2 -5 3 47 3 52
0 74 -1 48 -3z m-771 -9 c-3 -3 -12 -4 -19 -1 -8 3 -5 6 6 6 11 1 17 -2 13 -5z
m-2497 -44 c0 -27 -3 -30 -29 -30 -17 0 -33 5 -36 10 -4 6 7 10 24 10 17 0 31
5 31 10 0 6 -5 10 -11 10 -5 0 -7 5 -4 10 12 20 25 9 25 -20z m220 10 c0 -5
-20 -10 -44 -10 -25 0 -48 5 -51 10 -4 6 13 10 44 10 28 0 51 -4 51 -10z m65
0 c-3 -5 -17 -10 -31 -10 -13 0 -24 5 -24 10 0 6 14 10 31 10 17 0 28 -4 24
-10z m5002 -52 c-3 -8 -6 -5 -6 6 -1 11 2 17 5 13 3 -3 4 -12 1 -19z m-3883 3
c-9 -9 -34 -9 -40 0 -3 5 6 8 20 7 14 -1 23 -4 20 -7z m-1409 -41 c-3 -5 -26
-10 -51 -10 -24 0 -44 5 -44 10 0 6 23 10 51 10 31 0 48 -4 44 -10z m5317 -12
c-7 -7 -12 -8 -12 -2 0 14 12 26 19 19 2 -3 -1 -11 -7 -17z"/>
<path d="M5050 5431 c0 -11 4 -22 9 -25 5 -3 8 5 7 19 -1 29 -16 34 -16 6z"/>
<path d="M6946 2914 c5 -324 4 -341 -13 -340 -10 0 -59 -3 -110 -8 -90 -8 -91
-9 -95 -37 -3 -16 -3 -31 -1 -32 2 -2 24 0 51 4 26 4 75 8 110 8 l62 1 1 -97
c0 -54 1 -118 3 -143 1 -25 3 -190 4 -367 2 -280 4 -323 17 -323 18 0 19 14 3
40 -11 17 -10 22 2 30 10 6 11 10 3 10 -18 0 -16 25 2 40 12 10 15 44 14 194
-1 99 -5 233 -9 296 l-7 115 -3 -100 c-2 -55 -7 60 -12 255 -4 195 -12 454
-17 575 -9 206 -9 199 -5 -121z m1 -376 c-3 -8 -6 -5 -6 6 -1 11 2 17 5 13 3
-3 4 -12 1 -19z m40 -695 c-1 -49 -3 -9 -3 87 0 96 2 136 3 88 2 -49 2 -127 0
-175z"/>
<path d="M7360 2600 c0 -13 11 -13 30 0 12 8 11 10 -7 10 -13 0 -23 -4 -23
-10z"/>
<path d="M7180 2594 c-14 -2 -64 -6 -112 -9 l-88 -7 0 -124 c0 -68 3 -124 8
-124 4 0 6 43 4 95 l-3 95 70 0 c64 0 71 -2 71 -20 0 -11 -4 -20 -10 -20 -5 0
-10 5 -10 10 0 6 -4 10 -9 10 -6 0 -10 -18 -9 -39 0 -29 4 -38 14 -34 8 3 14
13 14 23 0 10 11 25 24 33 l23 16 7 -287 c4 -158 7 -380 7 -494 1 -140 4 -208
11 -208 8 0 9 71 5 233 -4 127 -10 356 -13 508 l-7 276 102 11 c56 7 120 12
143 12 23 0 39 3 35 6 -9 9 -139 12 -163 3 -14 -5 -21 -3 -21 6 0 8 3 13 6 11
3 -2 22 2 41 10 34 12 32 12 -40 12 -41 -1 -86 -2 -100 -4z"/>
<path d="M6568 2033 c7 -3 16 -2 19 1 4 3 -2 6 -13 5 -11 0 -14 -3 -6 -6z"/>
<path d="M6821 1983 c7 -10 15 -20 16 -22 2 -2 3 3 3 11 0 9 -7 19 -16 22 -15
6 -15 4 -3 -11z"/>
<path d="M6523 1915 c0 -25 0 -25 18 -9 19 18 17 34 -5 34 -8 0 -13 -11 -13
-25z"/>
<path d="M6860 1843 c0 -5 7 -18 15 -29 12 -16 14 -16 15 -3 0 9 -7 22 -15 29
-8 7 -15 8 -15 3z"/>
<path d="M6922 1795 c0 -16 2 -22 5 -12 2 9 2 23 0 30 -3 6 -5 -1 -5 -18z"/>
<path d="M6920 1730 c0 -5 5 -10 11 -10 5 0 7 5 4 10 -3 6 -8 10 -11 10 -2 0
-4 -4 -4 -10z"/>
<path d="M7189 1283 c2 -120 7 -227 12 -238 4 -11 7 82 6 214 -1 147 -6 236
-12 238 -7 2 -9 -71 -6 -214z"/>
<path d="M7251 1314 c0 -11 3 -14 6 -6 3 7 2 16 -1 19 -3 4 -6 -2 -5 -13z"/>
<path d="M7373 1243 c-25 -5 -32 -23 -9 -23 30 0 26 -20 -4 -27 -21 -4 -27 -8
-19 -14 7 -4 17 -5 21 -3 4 3 8 1 8 -5 0 -16 -15 -21 -53 -14 -26 4 -37 11
-37 23 0 9 -7 17 -14 17 -11 0 -13 -5 -5 -19 6 -12 6 -18 0 -18 -6 0 -8 -7 -4
-16 4 -12 8 -12 13 -4 6 10 13 9 29 -2 l21 -15 -22 -23 c-17 -18 -18 -22 -5
-17 9 3 17 2 17 -3 0 -6 -7 -10 -16 -10 -8 0 -13 -4 -10 -9 4 -5 0 -12 -6 -15
-7 -3 -4 -4 7 -3 11 1 25 8 31 16 6 8 27 14 47 13 20 -1 39 3 42 8 12 19 14
95 3 107 -8 10 -8 17 0 25 10 10 6 39 -7 37 -3 -1 -16 -4 -28 -6z m21 -108 c4
-11 -2 -15 -26 -15 -30 0 -31 1 -12 15 24 18 31 18 38 0z"/>
<path d="M7305 1219 c-10 -15 3 -25 16 -12 7 7 7 13 1 17 -6 3 -14 1 -17 -5z"/>
<path d="M2940 4650 c0 -6 7 -10 15 -10 8 0 15 2 15 4 0 2 -7 6 -15 10 -8 3
-15 1 -15 -4z"/>
<path d="M8983 5075 c0 -66 3 -169 7 -230 l7 -110 0 95 c0 52 -3 156 -6 230
l-8 135 0 -120z"/>
<path d="M9001 4599 c1 -57 5 -151 9 -209 5 -70 6 -36 3 100 -3 113 -7 207 -9
209 -2 2 -3 -43 -3 -100z"/>
<path d="M9024 4180 c0 -58 1 -81 3 -52 2 28 2 76 0 105 -2 28 -3 5 -3 -53z"/>
<path d="M8291 3134 c0 -11 3 -14 6 -6 3 7 2 16 -1 19 -3 4 -6 -2 -5 -13z"/>
<path d="M8290 3099 c0 -5 5 -7 10 -4 6 3 10 8 10 11 0 2 -4 4 -10 4 -5 0 -10
-5 -10 -11z"/>
<path d="M4828 4983 c6 -2 13 -21 13 -41 1 -20 3 -29 6 -19 3 10 10 14 16 11
7 -4 9 -4 5 1 -4 4 -2 15 4 24 7 9 9 13 4 9 -5 -4 -15 -1 -23 7 -8 8 -20 15
-26 14 -9 0 -8 -2 1 -6z"/>
<path d="M4822 4950 c0 -14 2 -19 5 -12 2 6 2 18 0 25 -3 6 -5 1 -5 -13z"/>
<path d="M4865 4879 c-4 -6 -4 -13 -1 -16 8 -8 36 5 36 17 0 13 -27 13 -35 -1z"/>
<path d="M5140 4830 c0 -5 7 -10 16 -10 8 0 12 5 9 10 -3 6 -10 10 -16 10 -5
0 -9 -4 -9 -10z"/>
<path d="M4816 4745 c4 -8 1 -15 -5 -15 -9 0 -9 -6 0 -22 11 -21 11 -22 -4 -9
-15 12 -17 9 -17 -28 0 -39 1 -41 20 -31 11 6 20 18 21 28 0 10 3 12 6 5 10
-27 23 -11 23 30 l-1 42 -14 -30 -13 -30 -1 38 c-1 20 -5 37 -11 37 -5 0 -7
-7 -4 -15z"/>
<path d="M5277 4743 c-3 -5 -1 -17 4 -28 7 -17 8 -17 8 8 1 27 -4 34 -12 20z"/>
<path d="M4870 4703 c0 -28 3 -34 10 -23 13 20 13 60 0 60 -5 0 -10 -17 -10
-37z"/>
<path d="M4895 4690 c-3 -5 -1 -10 4 -10 6 0 11 5 11 10 0 6 -2 10 -4 10 -3 0
-8 -4 -11 -10z"/>
<path d="M5270 4661 c0 -6 4 -13 10 -16 6 -3 7 1 4 9 -7 18 -14 21 -14 7z"/>
<path d="M5100 4633 c0 -12 5 -25 10 -28 13 -8 13 15 0 35 -8 12 -10 11 -10
-7z"/>
<path d="M4864 4626 c-8 -22 3 -33 18 -18 9 9 9 15 0 24 -9 9 -13 7 -18 -6z"/>
<path d="M4980 4506 c0 -9 5 -16 10 -16 6 0 10 4 10 9 0 6 -4 13 -10 16 -5 3
-10 -1 -10 -9z"/>
<path d="M5746 4935 c4 -8 8 -15 10 -15 2 0 4 7 4 15 0 8 -4 15 -10 15 -5 0
-7 -7 -4 -15z"/>
<path d="M5865 4860 c3 -5 8 -10 11 -10 2 0 4 5 4 10 0 6 -5 10 -11 10 -5 0
-7 -4 -4 -10z"/>
<path d="M2021 3503 c0 -31 2 -34 9 -18 12 28 12 55 0 55 -5 0 -10 -17 -9 -37z"/>
<path d="M2023 3340 c0 -25 2 -35 4 -22 2 12 2 32 0 45 -2 12 -4 2 -4 -23z"/>
<path d="M1991 2574 c0 -11 3 -14 6 -6 3 7 2 16 -1 19 -3 4 -6 -2 -5 -13z"/>
<path d="M2486 3361 c-8 -12 1 -18 45 -26 37 -7 61 7 38 21 -19 12 -77 15 -83
5z"/>
<path d="M2300 2623 c0 -15 -3 -39 -7 -52 -6 -22 -5 -23 18 -10 15 8 19 14 11
17 -9 3 -10 7 -2 17 8 9 8 15 0 20 -6 3 -8 10 -5 15 3 5 1 11 -5 15 -6 4 -10
-5 -10 -22z"/>
<path d="M2464 2542 c3 -5 1 -12 -5 -14 -7 -2 -7 -8 3 -15 11 -10 14 -8 15 7
1 11 -3 23 -9 26 -6 4 -8 2 -4 -4z"/>
<path d="M2451 2325 c0 -5 8 -25 18 -44 15 -29 19 -31 25 -15 4 10 4 15 -1 11
-4 -4 -15 7 -25 25 -9 18 -17 29 -17 23z"/>
<path d="M2501 2184 c0 -11 3 -14 6 -6 3 7 2 16 -1 19 -3 4 -6 -2 -5 -13z"/>
<path d="M4970 3720 c8 -5 20 -10 25 -10 6 0 3 5 -5 10 -8 5 -19 10 -25 10 -5
0 -3 -5 5 -10z"/>
<path d="M5020 3700 c8 -5 20 -10 25 -10 6 0 3 5 -5 10 -8 5 -19 10 -25 10 -5
0 -3 -5 5 -10z"/>
<path d="M5075 3670 c-3 -5 -2 -10 4 -10 5 0 13 5 16 10 3 6 2 10 -4 10 -5 0
-13 -4 -16 -10z"/>
<path d="M4906 3512 c-7 -12 22 -38 31 -28 4 3 0 14 -9 22 -9 10 -18 12 -22 6z"/>
<path d="M4964 3456 c1 -8 5 -18 8 -22 4 -3 5 1 4 10 -1 8 -5 18 -8 22 -4 3
-5 -1 -4 -10z"/>
<path d="M3435 3440 c3 -5 8 -10 11 -10 2 0 4 5 4 10 0 6 -5 10 -11 10 -5 0
-7 -4 -4 -10z"/>
<path d="M3850 3263 c0 -54 3 -73 10 -63 13 20 13 140 0 140 -6 0 -10 -32 -10
-77z"/>
<path d="M3908 3328 c-3 -7 -2 -23 0 -35 4 -19 7 -21 18 -12 18 15 18 33 0 48
-11 9 -15 9 -18 -1z"/>
<path d="M3970 3278 c0 -62 5 -60 14 5 5 31 4 47 -3 47 -7 0 -11 -22 -11 -52z"/>
<path d="M1475 3070 c-3 -5 -2 -10 4 -10 5 0 13 5 16 10 3 6 2 10 -4 10 -5 0
-13 -4 -16 -10z"/>
<path d="M3822 2835 c4 -4 3 -16 -3 -26 -8 -16 -6 -19 11 -19 11 0 20 5 20 11
0 5 -4 7 -10 4 -5 -3 -7 0 -4 8 3 8 -1 18 -8 23 -7 4 -10 4 -6 -1z"/>
<path d="M3850 2831 c0 -6 4 -12 8 -15 5 -3 9 1 9 9 0 8 -4 15 -9 15 -4 0 -8
-4 -8 -9z"/>
<path d="M3472 2720 c0 -19 2 -27 5 -17 2 9 2 25 0 35 -3 9 -5 1 -5 -18z"/>
<path d="M3440 2115 c0 -5 5 -17 10 -25 5 -8 10 -10 10 -5 0 6 -5 17 -10 25
-5 8 -10 11 -10 5z"/>
<path d="M3433 2051 c3 -11 1 -24 -4 -27 -5 -3 -9 -25 -9 -50 0 -32 4 -44 15
-44 18 0 27 34 23 90 -2 26 -9 45 -17 48 -10 3 -12 -1 -8 -17z"/>
<path d="M9010 2530 c6 -11 13 -20 15 -20 3 0 5 9 5 20 0 11 -7 20 -15 20 -13
0 -14 -4 -5 -20z"/>
<path d="M3835 2580 c-3 -6 1 -7 9 -4 18 7 21 14 7 14 -6 0 -13 -4 -16 -10z"/>
<path d="M3843 2545 c0 -8 4 -15 9 -15 4 0 8 4 8 9 0 6 -4 12 -8 15 -5 3 -9
-1 -9 -9z"/>
<path d="M3849 2501 c14 -25 20 -27 17 -4 -2 9 -8 19 -15 21 -10 3 -10 0 -2
-17z"/>
<path d="M3836 2323 c-6 -14 -5 -15 5 -6 7 7 10 15 7 18 -3 3 -9 -2 -12 -12z"/>
<path d="M5003 2161 c-6 -10 -8 -23 -3 -30 5 -9 9 -3 13 16 6 34 5 37 -10 14z"/>
<path d="M3142 1930 c0 -14 2 -19 5 -12 2 6 2 18 0 25 -3 6 -5 1 -5 -13z"/>
<path d="M4341 1368 c-1 -15 4 -30 9 -33 12 -7 12 12 0 40 -8 18 -9 17 -9 -7z"/>
<path d="M4685 1080 c3 -5 8 -10 11 -10 2 0 4 5 4 10 0 6 -5 10 -11 10 -5 0
-7 -4 -4 -10z"/>
<path d="M6393 744 c7 -7 158 -6 166 1 2 3 -35 5 -84 5 -49 0 -86 -3 -82 -6z"/>
<path d="M6588 743 c12 -2 32 -2 45 0 12 2 2 4 -23 4 -25 0 -35 -2 -22 -4z"/>
<path d="M6756 681 c5 -4 34 -5 64 -1 l55 7 -64 2 c-37 0 -61 -3 -55 -8z"/>
<path d="M7256 641 c-3 -4 29 -9 72 -10 42 -1 74 0 72 2 -10 9 -140 16 -144 8z"/>
<path d="M2298 643 c7 -3 16 -2 19 1 4 3 -2 6 -13 5 -11 0 -14 -3 -6 -6z"/>
<path d="M5914 383 c13 -14 156 -25 156 -12 0 10 6 10 -89 14 -40 2 -71 1 -67
-2z"/>
<path d="M6106 372 c-3 -5 9 -9 27 -9 26 -1 28 1 12 7 -27 11 -33 12 -39 2z"/>
<path d="M2773 293 c26 -2 67 -2 90 0 23 2 2 3 -48 3 -49 0 -68 -1 -42 -3z"/>
<path d="M2333 283 c9 -2 25 -2 35 0 9 3 1 5 -18 5 -19 0 -27 -2 -17 -5z"/>
<path d="M4656 5583 c-6 -14 -5 -15 5 -6 7 7 10 15 7 18 -3 3 -9 -2 -12 -12z"/>
<path d="M7025 5588 c11 -6 28 -18 39 -27 18 -15 18 -15 12 6 -5 16 -2 23 11
26 10 3 -4 5 -32 6 -42 0 -47 -1 -30 -11z"/>
<path d="M7055 5514 c-22 -8 -60 -19 -85 -25 -44 -12 -45 -12 -17 -21 27 -10
37 -28 15 -28 -21 0 35 -34 62 -38 13 -2 27 -8 31 -14 4 -6 39 -7 100 -3 52 4
95 8 96 9 3 3 -155 136 -159 135 -2 -1 -21 -8 -43 -15z"/>
</g>
</svg>
